<svg width="26" height="26" viewBox="0 0 26 26" fill="none" xmlns="http://www.w3.org/2000/svg">
<g clip-path="url(#clip0)">
<path d="M24.7414 11.991C23.4505 11.2172 22.6486 9.58005 22.6486 7.71848C22.6486 6.04146 23.4034 4.80999 24.0366 4.07213C24.3849 3.66618 24.494 3.14038 24.3358 2.62962C24.1777 2.1187 23.7906 1.74642 23.2739 1.60834L17.3521 0.0256665C17.0085 -0.0661474 16.6473 0.0919371 16.4815 0.406532C15.7932 1.7131 14.4495 2.52475 12.9746 2.52475C11.5069 2.52475 10.1661 1.71884 9.47563 0.421513C9.30912 0.108644 8.94882 -0.048069 8.60655 0.0435418L2.75158 1.60829C2.23492 1.74637 1.84776 2.11855 1.68958 2.62946C1.53139 3.14038 1.64042 3.66623 1.98883 4.07218C2.62204 4.80994 3.37681 6.04146 3.37681 7.71848C3.37681 9.55857 2.54535 11.2459 1.25859 12.0172C1.029 12.1549 0.888489 12.4029 0.888489 12.6706V16.095C0.888489 16.0957 0.888489 16.0983 0.888489 16.0989V25.238C0.888489 25.6587 1.22954 25.9997 1.65022 25.9997H21.0987C21.099 25.9997 21.1003 25.9997 21.1007 25.9997H24.3498C24.7705 25.9997 25.1116 25.6587 25.1116 25.238V12.6443C25.1115 12.3767 24.971 12.1286 24.7414 11.991ZM4.90027 7.71848C4.90027 5.57523 3.94567 4.01307 3.14494 3.0801L8.44887 1.66257C9.46507 3.14775 11.1488 4.04821 12.9746 4.04821C14.8094 4.04821 16.4975 3.1413 17.5122 1.64541L22.8805 3.08C22.0797 4.01307 21.1252 5.57523 21.1252 7.71848C21.1252 9.93847 22.0588 11.9383 23.5881 13.0525V15.3353H21.8614C21.0214 15.3353 20.338 16.0187 20.338 16.8587V24.4763H5.662V16.8587C5.662 16.0187 4.97858 15.3353 4.13854 15.3353H2.41195V13.0791C3.95694 11.9566 4.90027 9.94639 4.90027 7.71848ZM2.41195 16.8587H4.13854V24.4763H2.41195V16.8587ZM21.8614 24.4763V16.8587H23.5881V24.4763H21.8614Z" fill="#4D4E51"/>
<path d="M7.94899 16.8591H18.0528C18.4735 16.8591 18.8146 16.518 18.8146 16.0974C18.8146 15.6767 18.4735 15.3356 18.0528 15.3356H7.94899C7.52831 15.3356 7.18726 15.6767 7.18726 16.0974C7.18726 16.518 7.52831 16.8591 7.94899 16.8591Z" fill="#4D4E51"/>
<path d="M7.94899 19.9061H18.0528C18.4735 19.9061 18.8146 19.565 18.8146 19.1444C18.8146 18.7237 18.4735 18.3826 18.0528 18.3826H7.94899C7.52831 18.3826 7.18726 18.7237 7.18726 19.1444C7.18726 19.565 7.52831 19.9061 7.94899 19.9061Z" fill="#4D4E51"/>
<path d="M7.94899 22.953H18.0528C18.4735 22.953 18.8146 22.6119 18.8146 22.1912C18.8146 21.7706 18.4735 21.4295 18.0528 21.4295H7.94899C7.52831 21.4295 7.18726 21.7706 7.18726 22.1912C7.18726 22.6119 7.52831 22.953 7.94899 22.953Z" fill="#4D4E51"/>
</g>
<defs>
<clipPath id="clip0">
<rect width="26" height="26" fill="white"/>
</clipPath>
</defs>
</svg>
