<svg width="10" height="20" viewBox="0 0 10 20" fill="none" xmlns="http://www.w3.org/2000/svg">
<path d="M9.0625 19.5703H0.941406C0.488281 19.5703 0.121094 19.2148 0.121094 18.7734V9.26953C0.121094 8.04297 0.675781 6.88281 1.64062 6.08984C2.23828 5.60156 2.57812 4.88672 2.57812 4.12891V1.22656C2.57812 0.785156 2.94531 0.429688 3.39844 0.429688H6.60547C7.05859 0.429688 7.42578 0.785156 7.42578 1.22656V4.12891C7.42578 4.88672 7.76562 5.60156 8.36328 6.08984C9.32812 6.88281 9.88281 8.04297 9.88281 9.26953V18.7695C9.88672 19.2148 9.51953 19.5703 9.0625 19.5703ZM1.76172 17.9766H8.24219V9.26953C8.24219 8.51172 7.89844 7.79688 7.30469 7.30859C6.33984 6.51563 5.78516 5.35547 5.78516 4.12891V2.02344H4.21875V4.12891C4.21875 5.35547 3.66406 6.51563 2.69922 7.30859C2.10156 7.79688 1.76172 8.51172 1.76172 9.26953V17.9766Z" fill="#B9B9B9"/>
</svg>
