<svg width="26" height="26" viewBox="0 0 26 26" fill="none" xmlns="http://www.w3.org/2000/svg">
<g clip-path="url(#clip0)">
<path d="M5.06374 25.2418C6.51556 26.6938 9.18912 25.7748 11.0365 24.8602C13.5266 23.6269 16.3239 21.5219 18.9129 18.9327C18.9161 18.9297 18.9191 18.9265 18.9223 18.9233C18.9229 18.9227 18.9236 18.9221 18.9242 18.9214C18.9252 18.9206 18.926 18.9196 18.927 18.9186C21.5109 16.3323 23.6142 13.5368 24.8508 11.0453C26.2344 8.25711 26.3702 6.18758 25.2431 5.06067L20.9339 0.751413L20.9337 0.751214C20.2001 0.0176644 18.6535 -0.550648 15.4509 0.907723C13.2169 1.92513 10.6394 3.73124 8.19293 5.99338L7.61133 6.53114L12.9991 11.9189L13.5371 11.4216C15.0899 9.98565 16.7081 8.72763 18.2097 7.77608C17.0314 9.66053 15.4156 11.6563 13.5262 13.5457C11.6401 15.4317 9.64952 17.0436 7.77121 18.218C8.72495 16.7086 9.98555 15.0858 11.4231 13.5338L11.9212 12.9958L6.53342 7.60806L5.99565 8.18887C3.72815 10.6371 1.91986 13.216 0.90364 15.4506C-0.551362 18.65 0.019332 20.1974 0.754073 20.9324L5.06374 25.2418ZM14.6146 14.6119C15.5058 13.7208 16.9557 13.7206 17.8469 14.6119C18.737 15.502 18.7378 16.9496 17.8499 17.8409C17.8481 17.8427 17.8463 17.8444 17.8447 17.8462C16.9533 18.7351 15.505 18.7345 14.6148 17.844C13.7213 16.9508 13.7213 15.5051 14.6146 14.6119ZM13.0453 9.8103L9.81496 6.57994C11.9632 4.67585 14.1673 3.16649 16.0823 2.29449C17.8793 1.47604 19.3253 1.29771 19.8562 1.82853C20.2642 2.23656 20.3584 3.35177 19.5283 5.29732C17.5746 6.22626 15.2569 7.84054 13.0453 9.8103ZM20.5411 6.73585C21.1271 5.55519 21.4883 4.50386 21.6256 3.59794L24.1658 6.13818C24.6244 6.5966 24.6865 7.94865 23.4858 10.3681C22.6773 11.9973 21.4657 13.7738 19.9744 15.5351C19.8397 14.8017 19.4902 14.1005 18.9242 13.5346C18.2829 12.8931 17.4677 12.5295 16.629 12.442C18.2907 10.5105 19.6441 8.54315 20.5411 6.73585ZM12.4429 16.6306C12.5333 17.4959 12.9136 18.2979 13.5373 18.9216C14.104 19.4883 14.8064 19.838 15.5407 19.9721C13.7739 21.4707 11.9922 22.6865 10.3601 23.4946C8.34329 24.4934 6.72662 24.7501 6.14105 24.1645L3.60358 21.627C4.50594 21.4908 5.55231 21.1321 6.72682 20.5505C8.5359 19.6547 10.5072 18.2981 12.4429 16.6306ZM2.2906 16.0814C3.16162 14.166 4.67296 11.9606 6.58142 9.81089L9.81178 13.0413C7.8452 15.2469 6.23032 17.5675 5.298 19.5317C3.6373 20.2357 2.34238 20.3656 1.83159 19.8551L1.83139 19.8549C1.29858 19.3219 1.47453 17.876 2.2906 16.0814Z" fill="#4D4E51"/>
<path d="M20.6416 10.7388L21.7189 11.8161L20.6416 12.8937L19.5643 11.8161L20.6416 10.7388Z" fill="#4D4E51"/>
<path d="M11.8421 19.5402L12.9197 20.6175L11.8421 21.6949L10.7648 20.6175L11.8421 19.5402Z" fill="#4D4E51"/>
<path d="M8.60999 20.6176L9.6873 21.6949L8.60999 22.7722L7.53247 21.6949L8.60999 20.6176Z" fill="#4D4E51"/>
<path d="M21.7185 7.5069L22.7958 8.58421L21.7185 9.66172L20.6412 8.58421L21.7185 7.5069Z" fill="#4D4E51"/>
</g>
<defs>
<clipPath id="clip0">
<rect width="26" height="26" fill="white"/>
</clipPath>
</defs>
</svg>
