<svg width="30" height="30" viewBox="0 0 30 30" fill="none" xmlns="http://www.w3.org/2000/svg">
<path d="M14.6904 0.893677L14.439 1.71118C13.5989 4.43969 13.1543 7.27417 13.119 10.1288H16.2619C16.2266 7.27417 15.7818 4.43969 14.9417 1.71118L14.6904 0.893677Z" fill="white"/>
<path d="M12.7391 12.2276H16.6418L16.3795 11.1783H13.0013L12.7391 12.2276Z" fill="white"/>
<path d="M12.5915 13.2772H16.7893V24.8208H12.5915V13.2772Z" fill="white"/>
<path d="M13.641 25.8704H15.7397V26.9198H13.641V25.8704Z" fill="white"/>
<path d="M12.5915 27.9693H16.7893V29.0186H12.5915V27.9693Z" fill="white"/>
<path d="M20.0851 12.2276H23.988L23.7256 11.1783H20.3473L20.0851 12.2276Z" fill="white"/>
<path d="M22.0364 0.893677L21.785 1.71118C20.9449 4.43969 20.5003 7.27417 20.465 10.1288H23.6106C23.5745 7.27417 23.1288 4.43928 22.2877 1.71118L22.0364 0.893677Z" fill="white"/>
<path d="M19.9375 27.9693H24.1352V29.0186H19.9375V27.9693Z" fill="white"/>
<path d="M19.9375 13.2772H24.1352V24.8208H19.9375V13.2772Z" fill="white"/>
<path d="M20.9871 25.8704H23.086V26.9198H20.9871V25.8704Z" fill="white"/>
<path d="M7.34427 0.893677L7.09292 1.71118C6.25282 4.43969 5.80824 7.27417 5.77292 10.1288H8.91828C8.88235 7.27417 8.43673 4.43928 7.59562 1.71118L7.34427 0.893677Z" fill="white"/>
<path d="M5.39304 12.2276H9.29574L9.03351 11.1783H5.65527L5.39304 12.2276Z" fill="white"/>
<path d="M5.24539 27.9693H9.44318V29.0186H5.24539V27.9693Z" fill="white"/>
<path d="M5.24539 13.2772H9.44318V24.8208H5.24539V13.2772Z" fill="white"/>
<path d="M6.29474 25.8704H8.39364V26.9198H6.29474V25.8704Z" fill="white"/>
</svg>
