<svg width="20" height="20" viewBox="0 0 20 20" fill="none" xmlns="http://www.w3.org/2000/svg">
<path d="M19.1632 8.88162H0.832821C0.371706 8.88162 0.000366211 8.51019 0.000366211 8.04897V6.83673C0.000366211 3.0653 3.06494 0 6.83139 0H13.1605C16.927 0 19.9956 3.0653 19.9956 6.83673V8.04897C19.9956 8.50611 19.6202 8.88162 19.1632 8.88162ZM1.66528 7.21224H18.3266V6.83264C18.3266 3.98367 16.0088 1.6653 13.1605 1.6653H6.83139C3.98309 1.6653 1.66528 3.98367 1.66528 6.83264V7.21224Z" fill="#B9B9B9"/>
<path d="M17.3146 20H2.67728C1.20008 20 0.000366211 18.8 0.000366211 17.3225V15.1102C0.000366211 14.649 0.371706 14.2776 0.832821 14.2776H19.1591C19.6202 14.2776 19.9915 14.649 19.9915 15.1102V17.3225C19.9956 18.8 18.7918 20 17.3146 20ZM1.66528 15.9429V17.3225C1.66528 17.8817 2.11823 18.3347 2.67728 18.3347H17.3146C17.8737 18.3347 18.3266 17.8817 18.3266 17.3225V15.9429H1.66528Z" fill="#B9B9B9"/>
<path d="M0.832794 13.2122C0.538987 13.2122 0.25334 13.0571 0.102356 12.7795C-0.118 12.3755 0.028904 11.8693 0.43289 11.6489L2.14677 10.7101C3.17101 10.1469 4.44418 10.1469 5.47251 10.7101C6.00299 10.9999 6.66406 10.9999 7.19455 10.7101L7.96579 10.2857C8.99004 9.7224 10.2673 9.7224 11.2915 10.2857L12.0056 10.6775C12.5361 10.9673 13.1972 10.9673 13.7277 10.6775L14.5642 10.2163C15.5885 9.65301 16.8616 9.65301 17.89 10.2163L19.5671 11.1387C19.9711 11.3591 20.118 11.8653 19.8976 12.2693C19.6773 12.6734 19.1713 12.8204 18.7673 12.5999L17.0902 11.6816C16.5597 11.3918 15.8986 11.3918 15.3681 11.6816L14.5316 12.1428C13.5073 12.7061 12.2342 12.7061 11.2058 12.1428L10.4917 11.751C9.96124 11.4612 9.30017 11.4612 8.76968 11.751L7.99436 12.1673C6.97011 12.7306 5.69286 12.7306 4.66862 12.1673C4.13813 11.8775 3.47706 11.8775 2.94658 12.1673L1.2327 13.1061C1.1062 13.1795 0.967456 13.2122 0.832794 13.2122Z" fill="#B9B9B9"/>
</svg>
