<svg width="26" height="26" viewBox="0 0 26 26" fill="none" xmlns="http://www.w3.org/2000/svg">
<g clip-path="url(#clip0)">
<path d="M22.1924 4.82107C19.9189 2.54762 16.9516 1.22076 13.7678 1.03648V0.304718H12.2321V1.03648C9.04837 1.22076 6.08104 2.54762 3.80759 4.82087C1.35225 7.27641 0 10.5409 0 14.0132V21.3208C0 22.5881 0.550658 23.7896 1.51074 24.6172C2.47082 25.4444 3.74035 25.8115 4.99401 25.6247L9.68155 24.925C11.8834 24.5964 14.1166 24.5964 16.3184 24.925L21.0059 25.6247C21.2206 25.6568 21.4358 25.6725 21.6498 25.6725C22.6853 25.6725 23.6936 25.3027 24.4892 24.6172C25.4493 23.7896 25.9999 22.5881 25.9999 21.3208V14.0132C25.9999 10.5409 24.6477 7.27641 22.1924 4.82107ZM18.8343 15.6365C14.9626 15.0914 11.0376 15.0914 7.1657 15.6365C6.78742 14.4439 6.58846 13.1373 6.58846 11.8201C6.58846 9.30746 7.28412 6.95447 8.5471 5.19459C9.75494 3.51167 11.3363 2.58491 13 2.58491C14.6637 2.58491 16.245 3.51167 17.4528 5.19459C18.7158 6.95447 19.4115 9.30746 19.4115 11.8201C19.4115 13.1371 19.2125 14.4439 18.8343 15.6365ZM1.53593 14.0132C1.53593 9.64428 3.99287 5.83887 7.59753 3.90463C7.49617 4.03217 7.39659 4.16349 7.29939 4.29897C5.85035 6.31772 5.05253 8.98889 5.05253 11.8199C5.05253 13.2035 5.2497 14.5808 5.62639 15.8553L1.53593 16.4377V14.0132ZM24.464 21.3208C24.464 22.1408 24.1078 22.9182 23.4865 23.4536C22.8652 23.989 22.0436 24.2268 21.2327 24.1056L16.5451 23.4058C14.1927 23.0549 11.8072 23.0549 9.45481 23.4058L4.76728 24.1056C3.95637 24.2266 3.13455 23.989 2.51347 23.4536C1.89219 22.9182 1.53593 22.1408 1.53593 21.3208V17.9891L7.31784 17.1658C11.0881 16.6293 14.9118 16.6293 18.6821 17.1658L24.464 17.9891V21.3208ZM20.3736 15.8553C20.7502 14.5808 20.9474 13.2035 20.9474 11.8199C20.9474 8.98869 20.1494 6.31772 18.7006 4.29897C18.6034 4.16349 18.5038 4.03217 18.4024 3.90463C22.0069 5.83887 24.464 9.64428 24.464 14.0132V16.4377L20.3736 15.8553Z" fill="#4D4E51"/>
<path d="M13 7.17661C10.254 7.17661 8.18311 8.38306 8.18311 9.98306C8.18311 11.5831 10.254 12.7895 13 12.7895C15.7459 12.7895 17.8169 11.5831 17.8169 9.98306C17.8169 8.38306 15.7459 7.17661 13 7.17661ZM15.5176 10.7386C14.8676 11.0659 13.95 11.2536 13 11.2536C12.05 11.2536 11.1324 11.0659 10.4823 10.7386C10.0186 10.5052 9.71904 10.2086 9.71904 9.98306C9.71904 9.75752 10.0188 9.46097 10.4823 9.22749C11.1324 8.90019 12.05 8.71254 13 8.71254C13.95 8.71254 14.8676 8.90019 15.5176 9.22749C15.9814 9.46097 16.2809 9.75752 16.2809 9.98306C16.2809 10.2086 15.9812 10.5052 15.5176 10.7386Z" fill="#4D4E51"/>
</g>
<defs>
<clipPath id="clip0">
<rect width="26" height="26" fill="white"/>
</clipPath>
</defs>
</svg>
