<svg width="26" height="26" viewBox="0 0 26 26" fill="none" xmlns="http://www.w3.org/2000/svg">
<g clip-path="url(#clip0)">
<path d="M8.96362 14.2487C9.92009 13.6754 10.5619 12.6288 10.5619 11.4349C10.5619 9.90762 9.51201 8.62103 8.09608 8.25861V6.36431C9.50937 6.02108 10.5619 4.7449 10.5619 3.22755C10.5619 1.44787 9.11399 0 7.33436 0C5.55473 0 4.10685 1.44788 4.10685 3.2275H5.63029C5.63029 2.2879 6.39475 1.52344 7.33436 1.52344C8.27396 1.52344 9.03842 2.2879 9.03842 3.2275C9.03842 4.16716 8.27396 4.93162 7.33436 4.93162H6.57264V8.23509C5.10572 8.5608 4.00514 9.87137 4.00514 11.4349C4.00514 12.6289 4.64696 13.6754 5.60343 14.2487C5.28285 14.7215 4.9191 15.275 4.55271 15.867C3.07437 18.2563 2.35571 19.9589 2.35571 21.0723C2.35571 23.7894 4.56627 26 7.28347 26C10.0006 26 12.2112 23.7894 12.2112 21.0723C12.2112 19.9589 11.4926 18.2562 10.0142 15.867C9.64795 15.275 9.2841 14.7214 8.96362 14.2487ZM7.28353 9.67997C8.25116 9.67997 9.03842 10.4672 9.03842 11.4349C9.03842 12.4026 8.25116 13.1898 7.28353 13.1898C6.31584 13.1898 5.52858 12.4026 5.52858 11.4349C5.52858 10.4672 6.31584 9.67997 7.28353 9.67997ZM7.28353 14.7133C7.33507 14.7133 7.38626 14.7117 7.43724 14.7093C7.9709 15.4792 8.54082 16.3548 9.05234 17.2196L7.28353 18.3172L5.51471 17.2196C6.02623 16.3548 6.5962 15.4792 7.12981 14.7093C7.18079 14.7117 7.23198 14.7133 7.28353 14.7133ZM7.28353 24.4766C5.4064 24.4766 3.8792 22.9494 3.8792 21.0723C3.8792 20.5016 4.24026 19.5841 4.77295 18.5522L7.28353 20.1101L9.7941 18.5522C10.3268 19.5841 10.6878 20.5017 10.6878 21.0723C10.6878 22.9494 9.16065 24.4766 7.28353 24.4766Z" fill="#4D4E51"/>
<path d="M21.4472 15.867C21.081 15.2751 20.7172 14.7215 20.3966 14.2487C21.353 13.6754 21.9949 12.6288 21.9949 11.4349C21.9949 9.90762 20.945 8.62103 19.529 8.25861V6.36431C20.9423 6.02108 21.9949 4.7449 21.9949 3.22755C21.9949 1.44787 20.547 0 18.7674 0C16.9877 0 15.5399 1.44788 15.5399 3.2275H17.0633C17.0633 2.2879 17.8278 1.52344 18.7674 1.52344C19.707 1.52344 20.4715 2.2879 20.4715 3.2275C20.4715 4.16716 19.707 4.93162 18.7674 4.93162H18.0056V8.23509C16.5387 8.5608 15.4381 9.87137 15.4381 11.4349C15.4381 12.6289 16.08 13.6754 17.0364 14.2487C16.7158 14.7215 16.3521 15.275 15.9858 15.867C14.5074 18.2562 13.7888 19.9589 13.7888 21.0723C13.7888 23.7894 15.9994 26 18.7165 26C21.4337 26 23.6442 23.7894 23.6442 21.0723C23.6442 19.9589 22.9256 18.2562 21.4472 15.867ZM18.7165 9.67997C19.6842 9.67997 20.4715 10.4672 20.4715 11.4349C20.4715 12.4026 19.6842 13.1898 18.7165 13.1898C17.7488 13.1898 16.9616 12.4026 16.9616 11.4349C16.9616 10.4672 17.7488 9.67997 18.7165 9.67997ZM18.7165 14.7133C18.7681 14.7133 18.8193 14.7117 18.8702 14.7093C19.4039 15.4792 19.9738 16.3548 20.4853 17.2196L18.7165 18.3172L16.9477 17.2196C17.4592 16.3548 18.0292 15.4792 18.5628 14.7093C18.6137 14.7117 18.6649 14.7133 18.7165 14.7133ZM18.7165 24.4766C16.8394 24.4766 15.3123 22.9494 15.3123 21.0723C15.3123 20.5017 15.6733 19.5841 16.206 18.5522L18.7165 20.11L21.2271 18.5522C21.7598 19.5841 22.1208 20.5017 22.1208 21.0723C22.1208 22.9494 20.5936 24.4766 18.7165 24.4766Z" fill="#4D4E51"/>
</g>
<defs>
<clipPath id="clip0">
<rect width="26" height="26" fill="white"/>
</clipPath>
</defs>
</svg>
