<svg width="20" height="20" viewBox="0 0 20 20" fill="none" xmlns="http://www.w3.org/2000/svg">
<path d="M19.3094 7.68759L19.1196 7.36997H15.7792V8.91545H15.4449V6.67439H13.7137L12.6145 5.69977H10.7969V4.81325H11.3815V3.50891H6.74775V4.81325H7.33236V5.69977H5.44005L4.34091 6.67439H2.17934V7.32658V9.91392H1.30434V8.24923H0V12.883H1.30434V11.2183H2.17934V13.8057V14.4578H5.44005L7.73337 16.4912H15.4449V14.2082H15.7791V15.7537H19.1196L19.3094 15.4361C19.3801 15.3178 20 14.2042 20 11.5618C20 8.91947 19.3801 7.80587 19.3094 7.68759ZM8.63678 4.81333H9.4926V5.69985H8.63678V4.81333ZM18.3175 14.4494H17.0835V12.9039H14.1405V15.1868H8.22838L5.93505 13.1535H3.48372V7.97876H4.83595L5.93509 7.00415H12.1195L13.2186 7.97876H14.1405V10.2198H17.0835V8.67435H18.3175C18.4688 9.11912 18.6957 10.0398 18.6957 11.5619C18.6957 13.0839 18.4688 14.0046 18.3175 14.4494Z" fill="#4E5059"/>
</svg>
