<svg width="24" height="24" viewBox="0 0 24 24" fill="none" xmlns="http://www.w3.org/2000/svg">
<g clip-path="url(#clip0)">
<path d="M20.1226 13.5562C17.4463 11.6356 14.6147 10.6205 11.9343 10.6205C9.25379 10.6205 6.42242 11.6356 3.74597 13.5562C1.7439 14.9929 0.535217 16.4187 0.484863 16.4786L-0.046875 17.1107L0.663025 17.5325C0.713562 17.5626 1.92352 18.2763 3.91791 18.9919C5.75299 19.6503 8.63342 20.4351 11.9343 20.4351C15.2351 20.4351 18.1155 19.6503 19.9506 18.9919C21.945 18.2763 23.155 17.5626 23.2055 17.5325L23.9154 17.1107L23.3837 16.4788C23.3333 16.4187 22.1248 14.9929 20.1226 13.5562ZM19.1591 14.5919C16.7944 13.8098 14.3762 13.4145 11.9343 13.4145C9.49255 13.4145 7.07428 13.8098 4.70966 14.5919C6.40595 13.4 9.0011 12.0225 11.9343 12.0225C14.8674 12.0225 17.4626 13.4 19.1591 14.5919ZM15.4395 15.5279C15.4395 17.4606 13.8671 19.0331 11.9343 19.0331C10.0014 19.0331 8.42908 17.4606 8.42908 15.5279C8.42908 15.39 8.43732 15.2527 8.45325 15.1166C8.94086 15.0363 9.42957 14.9735 9.91901 14.9269C9.86206 15.1176 9.83112 15.319 9.83112 15.5279C9.83112 16.6875 10.7747 17.6311 11.9343 17.6311C13.0941 17.6311 14.0374 16.6875 14.0374 15.5279C14.0374 15.319 14.0065 15.1176 13.9495 14.9269C14.439 14.9735 14.9277 15.0363 15.4153 15.1166C15.4312 15.2527 15.4395 15.39 15.4395 15.5279ZM12.6354 15.5279C12.6354 15.9144 12.3208 16.2288 11.9343 16.2288C11.5477 16.2288 11.2332 15.9144 11.2332 15.5279C11.2332 15.1679 11.506 14.8707 11.8557 14.8316C11.9081 14.8314 11.9605 14.8314 12.0128 14.8316C12.3625 14.8707 12.6354 15.1679 12.6354 15.5279ZM2.59424 16.9385C4.04663 16.2638 5.52979 15.7517 7.02887 15.4008C7.02777 15.4431 7.02686 15.4854 7.02686 15.5279C7.02686 16.7305 7.4621 17.8332 8.1828 18.6876C5.75391 18.2474 3.77875 17.4789 2.59424 16.9385ZM15.6844 18.6892C16.4059 17.8347 16.8417 16.7313 16.8417 15.5279C16.8417 15.4854 16.8408 15.4431 16.8397 15.4008C18.3393 15.7517 19.8232 16.2644 21.2761 16.9395C20.0929 17.4804 18.1185 18.2494 15.6844 18.6892Z" fill="#C4C4C4"/>
<path d="M17.2614 4.25702C16.4905 3.73681 15.5625 3.54547 14.6488 3.71832L1.49763 6.20617C0.000190523 6.48944 -0.47863 8.3941 0.703132 9.35302C1.66792 10.1356 2.91779 10.439 4.13178 10.1885L16.2217 7.69372L23.9531 8.8764L17.2674 4.26123L17.2614 4.25702ZM16.1851 6.26971L3.84852 8.81543C3.04652 8.98077 2.22218 8.7799 1.58643 8.2641C1.33118 8.057 1.43281 7.64538 1.75819 7.58386L14.9094 5.09601C15.4404 4.99548 15.9987 5.09747 16.474 5.41717L18.1428 6.56927L16.1851 6.26971Z" fill="#C4C4C4"/>
</g>
<defs>
<clipPath id="clip0">
<rect width="24" height="24" fill="white"/>
</clipPath>
</defs>
</svg>
