<svg width="26" height="26" viewBox="0 0 26 26" fill="none" xmlns="http://www.w3.org/2000/svg">
<path d="M23.1862 18.2863C22.7678 18.238 22.3904 18.5378 22.3422 18.9557L22.3377 18.9951C22.3185 19.1673 22.2603 19.6914 22.0863 20.3431C21.9777 20.7495 22.2193 21.167 22.6257 21.2755C22.6915 21.2931 22.7577 21.3015 22.8227 21.3015C23.1593 21.3015 23.4672 21.0767 23.5581 20.7361C23.7617 19.9737 23.8296 19.364 23.8518 19.1636L23.8556 19.1303C23.9038 18.7124 23.6041 18.3345 23.1862 18.2863Z" fill="#C4C4C4"/>
<path d="M22.4479 21.7518C22.0802 21.5475 21.6166 21.6799 21.4121 22.0475C21.1084 22.594 20.7422 23.0553 20.3236 23.4187C20.006 23.6946 19.9721 24.1757 20.2479 24.4933C20.3986 24.6668 20.6104 24.7556 20.8234 24.7556C21.0004 24.7556 21.1783 24.6942 21.3225 24.569C21.8754 24.0889 22.3535 23.4896 22.7437 22.7876C22.9481 22.42 22.8156 21.9562 22.4479 21.7518Z" fill="#C4C4C4"/>
<path d="M18.8366 24.2506C18.436 24.3779 17.9972 24.4542 17.5324 24.4775C17.1122 24.4986 16.7886 24.8563 16.8097 25.2764C16.8301 25.6836 17.1666 26 17.5698 26C17.5827 26 17.5956 25.9997 17.6086 25.999C18.2042 25.9692 18.7726 25.8694 19.298 25.7025C19.6989 25.5751 19.9207 25.1468 19.7933 24.7459C19.6658 24.3449 19.2374 24.1232 18.8366 24.2506Z" fill="#C4C4C4"/>
<path d="M24.2033 15.458C24.1751 15.4296 21.379 12.5919 21.379 9.90234C21.379 4.44219 16.9369 0 11.4767 0C6.01655 0 1.57437 4.44219 1.57437 9.90234C1.57437 12.5882 2.68069 15.1678 4.62124 17.0336V25.2383C4.62124 25.659 4.96229 26 5.38296 26H14.5236C14.7661 26 14.9941 25.8842 15.1375 25.6887C15.281 25.4932 15.3228 25.2407 15.2501 25.0094C15.2482 25.0032 15.0539 24.38 14.9603 23.6805C14.8537 22.8833 14.944 22.4712 15.0275 22.3214C15.1961 22.3434 15.5465 22.4878 15.7875 22.5872C16.7224 22.9727 18.2874 23.618 19.6325 22.273C20.5146 21.3909 20.6572 20.1103 20.7831 18.9804C20.9809 17.2046 21.1613 16.7578 22.1408 16.7578H23.6642C23.972 16.7578 24.2493 16.5722 24.3674 16.2879C24.4855 16.0037 24.4206 15.6761 24.2033 15.458ZM19.8004 16.5289C19.4491 17.1944 19.3575 18.0167 19.269 18.8118C19.166 19.7359 19.0596 20.6914 18.5552 21.1958C17.9906 21.7605 17.4289 21.6162 16.3681 21.1788C15.6217 20.871 14.6927 20.488 13.9849 21.1958C13.4513 21.7295 13.2774 22.6156 13.4533 23.9049C13.4806 24.105 13.5143 24.2983 13.5499 24.4766H6.14467V16.7016C6.14467 16.4853 6.05261 16.279 5.89153 16.1346C4.11607 14.5423 3.0978 12.2707 3.0978 9.90234C3.0978 5.28221 6.85658 1.52344 11.4767 1.52344C16.0968 1.52344 19.8556 5.28221 19.8556 9.90234C19.8556 11.9702 21.0692 13.9801 22.0188 15.2362C20.9828 15.2675 20.2369 15.702 19.8004 16.5289Z" fill="#C4C4C4"/>
<path d="M17.0319 9.36375C16.7688 9.6268 16.4191 9.77168 16.047 9.77168C15.6749 9.77168 15.3253 9.6268 15.0622 9.36375C14.7647 9.06622 14.2824 9.06633 13.9849 9.36375C13.6875 9.66123 13.6875 10.1435 13.9849 10.441C14.5357 10.9917 15.2681 11.2951 16.047 11.2951C16.8258 11.2951 17.5583 10.9917 18.109 10.441C18.4065 10.1435 18.4065 9.66123 18.109 9.36375C17.8116 9.06622 17.3293 9.06627 17.0319 9.36375Z" fill="#C4C4C4"/>
</svg>
