<svg width="18" height="18" viewBox="0 0 18 18" fill="none" xmlns="http://www.w3.org/2000/svg">
<path d="M17.8002 5.32442L14.6015 2.12582C14.3351 1.85949 13.9034 1.85949 13.6371 2.12582C13.3707 2.39215 13.3707 2.82397 13.6371 3.09021L15.6374 5.09055V12.7697C15.6374 13.4365 15.0949 13.9791 14.4281 13.9791C13.7613 13.9791 13.2187 13.4365 13.2187 12.7697V10.8914C13.2187 9.70856 12.4162 8.71016 11.3273 8.41046V4.30684V3.0672C11.3273 1.66226 10.1843 0.519287 8.77927 0.519287H4.12126C2.71623 0.519287 1.57325 1.66226 1.57325 3.0672V4.30684V8.92702V16.1168H0.681966C0.305339 16.1168 0 16.4221 0 16.7987C0 17.1754 0.305339 17.4807 0.681966 17.4807H12.2185C12.5952 17.4807 12.9004 17.1754 12.9004 16.7987C12.9004 16.4221 12.5952 16.1168 12.2185 16.1168H11.3273V9.89351C11.6454 10.1116 11.8548 10.4774 11.8548 10.8914V12.7698C11.8548 14.1887 13.0091 15.3431 14.4281 15.3431C15.8471 15.3431 17.0013 14.1887 17.0013 12.7698V6.41084C17.1003 6.46267 17.2091 6.48858 17.3179 6.48858C17.4924 6.48858 17.667 6.42202 17.8002 6.28881C18.0666 6.02248 18.0666 5.59075 17.8002 5.32442ZM2.93718 4.9888H9.96344V8.24506H2.93718V4.9888ZM4.12126 1.88322H8.77927C9.43214 1.88322 9.96335 2.41434 9.96335 3.0673V3.62496H2.93718V3.0673C2.93718 2.41434 3.4683 1.88322 4.12126 1.88322ZM2.93718 16.1168V9.60899H9.96344V16.1168H2.93718Z" fill="#3AB1AA"/>
</svg>
