<svg width="26" height="26" viewBox="0 0 26 26" fill="none" xmlns="http://www.w3.org/2000/svg">
<g clip-path="url(#clip0)">
<path d="M16.949 7.76576C18.6411 6.3635 19.5087 4.34243 19.5087 1.73333C19.5087 0.776039 18.7326 0 17.7753 0C16.818 0 16.042 0.776039 16.042 1.73333C16.042 1.8915 16.039 2.03407 16.0333 2.16667H9.97533C9.9697 2.03363 9.96666 1.8915 9.96666 1.73333C9.96666 0.776039 9.19062 0 8.23333 0C7.27604 0 6.5 0.776039 6.5 1.73333C6.5 4.34243 7.36667 6.3635 9.0597 7.76576C7.40928 8.99278 6.45638 10.944 6.50347 13C6.45648 15.0561 7.40955 17.0073 9.06013 18.2342C7.36667 19.6369 6.5 21.658 6.5 24.2667C6.5 25.2239 7.27604 26 8.23333 26C9.19062 26 9.96666 25.2239 9.96666 24.2667C9.96666 24.1085 9.9697 23.9659 9.97533 23.8333H16.0333C16.039 23.9664 16.042 24.1085 16.042 24.2667C16.042 25.2239 16.818 26 17.7753 26C18.7326 26 19.5087 25.2239 19.5087 24.2667C19.5087 21.6571 18.642 19.6361 16.949 18.2342C18.5996 17.0074 19.5526 15.0561 19.5052 13C19.5528 10.9439 18.5998 8.99245 16.949 7.76576ZM16.8671 2.64333C16.8975 2.34097 16.912 2.03722 16.9104 1.73333C16.9104 1.25469 17.2984 0.866666 17.7771 0.866666C18.2557 0.866666 18.6437 1.25469 18.6437 1.73333C18.6437 4.16866 17.8156 6.02333 16.1997 7.25746C15.6143 6.90138 14.9914 6.61075 14.3425 6.3908C15.1785 5.99157 15.8702 5.343 16.3224 4.5344C16.623 3.9446 16.8079 3.30268 16.8671 2.64333ZM15.662 3.9H10.3471C10.2254 3.62199 10.135 3.33132 10.0776 3.03333H15.9311C15.8737 3.33128 15.7834 3.62195 15.662 3.9ZM15.1051 4.76666C14.5291 5.36158 13.8022 5.78876 13.0022 6.00253C12.2038 5.78815 11.4786 5.361 10.904 4.76666H15.1051ZM9.14333 23.3567C9.11267 23.659 9.0982 23.9628 9.1 24.2667C9.1 24.7453 8.71198 25.1333 8.23333 25.1333C7.75469 25.1333 7.36667 24.7453 7.36667 24.2667C7.36667 21.8313 8.19477 19.9793 9.81066 18.7425C10.396 19.0977 11.0185 19.3876 11.6671 19.607C10.8316 20.0065 10.1403 20.6548 9.68803 21.463C9.38692 22.0535 9.202 22.6964 9.14333 23.3567ZM10.3471 22.1H15.662C15.7832 22.3781 15.8734 22.6688 15.9311 22.9667H10.0776C10.1353 22.6687 10.2256 22.3781 10.3471 22.1ZM10.9035 21.2333C11.4794 20.6384 12.2062 20.2112 13.0061 19.9975C13.8046 20.2117 14.53 20.6389 15.1047 21.2333H10.9035ZM18.642 24.2667C18.642 24.7453 18.254 25.1333 17.7753 25.1333C17.2967 25.1333 16.9087 24.7453 16.9087 24.2667C16.9102 23.9613 16.8958 23.6561 16.8653 23.3523C16.8051 22.6926 16.6192 22.0506 16.3176 21.4608C15.7231 20.3584 14.6501 19.5732 13.1287 19.1278L13.0628 19.1109C12.9762 19.0862 12.8895 19.0641 12.7963 19.0407C11.8078 18.8068 10.8665 18.4061 10.0126 17.8559C8.33731 16.8307 7.33124 14.9941 7.36927 13.0303L7.37187 13L7.36927 12.9697C7.33084 11.1038 8.24272 9.34614 9.7903 8.30309C10.3708 8.67497 10.9936 8.97639 11.6454 9.20096C10.9618 9.5145 10.3597 9.98128 9.88563 10.5651C9.35213 11.2136 9.07465 12.0351 9.10563 12.8743L9.10996 13C9.10996 13.0368 9.1065 13.0702 9.10303 13.1066C9.06969 13.9515 9.34719 14.7794 9.88303 15.4336C10.665 16.3468 11.7158 16.9892 12.8852 17.2688C12.997 17.3008 13.1088 17.3333 13.2232 17.3598C14.2114 17.5899 15.1483 18.0013 15.9865 18.5731C17.7476 19.8059 18.642 21.7217 18.642 24.2667ZM13.0043 16.3978C12.3989 16.2248 11.8254 15.9554 11.3057 15.6H14.7021C14.1837 15.9571 13.6101 16.2266 13.0043 16.3978ZM15.5567 14.7333H10.449C10.179 14.349 10.0137 13.9009 9.96926 13.4333H16.0333C15.9888 13.9004 15.8246 14.3482 15.5567 14.7333ZM9.97403 12.5667C10.0169 12.0992 10.1812 11.6511 10.4507 11.2667H15.5597C15.8297 11.651 15.995 12.099 16.0394 12.5667H9.97403ZM11.3065 10.4C11.8249 10.043 12.3983 9.77348 13.0039 9.60223C13.6095 9.77496 14.1833 10.0443 14.703 10.4H11.3065ZM18.639 13.0308C18.6775 14.8966 17.7653 16.6543 16.2175 17.6969C15.6371 17.325 15.0145 17.0236 14.3628 16.799C15.0464 16.4857 15.6484 16.0189 16.1222 15.4349C16.6519 14.7843 16.9289 13.9642 16.9022 13.1257L16.9 13C16.9 12.9632 16.9035 12.9298 16.9069 12.8934C16.94 12.0486 16.6626 11.2209 16.1269 10.5668C15.3438 9.65168 14.2906 9.00854 13.1187 8.72993C13.0087 8.69786 12.8995 8.66623 12.7868 8.64023C11.7986 8.41013 10.8616 7.99873 10.0234 7.4269C8.26063 6.19363 7.36667 4.2783 7.36667 1.73333C7.36667 1.25469 7.75469 0.866666 8.23333 0.866666C8.71198 0.866666 9.1 1.25469 9.1 1.73333C9.09822 2.03881 9.11269 2.34416 9.14333 2.6481C9.20329 3.30768 9.38922 3.94964 9.69106 4.53916C10.2852 5.64156 11.3581 6.42676 12.88 6.87223L12.9458 6.88913C13.0299 6.9134 13.1192 6.9355 13.2123 6.95933C14.2007 7.19307 15.142 7.59373 15.9956 8.14406C17.6711 9.16889 18.6773 11.0055 18.639 12.9692L18.6364 13L18.639 13.0308Z" fill="white"/>
</g>
<defs>
<clipPath id="clip0">
<rect width="26" height="26" fill="white"/>
</clipPath>
</defs>
</svg>
