<svg width="26" height="26" viewBox="0 0 26 26" fill="none" xmlns="http://www.w3.org/2000/svg">
<path d="M17.8243 12.8347V8.88672C17.8243 7.25502 16.7927 5.86021 15.3476 5.31898C15.6291 4.88312 15.7931 4.36485 15.7931 3.80859V2.79297C15.7931 1.25293 14.5402 0 13.0001 0C11.4601 0 10.2071 1.25293 10.2071 2.79297V3.80859C10.2071 4.36485 10.3712 4.88312 10.6526 5.31898C9.20752 5.86021 8.1759 7.25502 8.1759 8.88672V12.8347L5.875 20.3125H9.76429L10.2721 26H15.7281L16.2359 20.3125H20.1252L17.8243 12.8347ZM11.7306 2.79297C11.7306 2.09295 12.3001 1.52344 13.0001 1.52344C13.7001 1.52344 14.2696 2.09295 14.2696 2.79297V3.80859C14.2696 4.50861 13.7001 5.07812 13.0001 5.07812C12.3001 5.07812 11.7306 4.50861 11.7306 3.80859V2.79297ZM14.8424 18.7891L14.3346 24.4766H11.6656L11.1578 18.7891H7.93773L9.69934 13.0638V8.88672C9.69934 7.62668 10.7245 6.60156 11.9845 6.60156H14.0157C15.2758 6.60156 16.3009 7.62668 16.3009 8.88672V13.0638L18.0625 18.7891H14.8424Z" fill="#EE348D"/>
</svg>
