<svg width="20" height="20" viewBox="0 0 20 20" fill="none" xmlns="http://www.w3.org/2000/svg">
<path d="M9.99996 18.3333C14.6023 18.3333 18.3333 14.6024 18.3333 10C18.3333 5.39763 14.6023 1.66667 9.99996 1.66667C5.39759 1.66667 1.66663 5.39763 1.66663 10C1.66663 14.6024 5.39759 18.3333 9.99996 18.3333Z" stroke="#7D7D7D" stroke-width="1.66667" stroke-linecap="round" stroke-linejoin="round"/>
<path d="M7.57495 7.5C7.77087 6.94306 8.15758 6.47342 8.66658 6.17428C9.17558 5.87513 9.77403 5.76578 10.3559 5.86559C10.9378 5.96541 11.4656 6.26794 11.8458 6.71961C12.2261 7.17128 12.4342 7.74294 12.4333 8.33333C12.4333 10 9.93328 10.8333 9.93328 10.8333" stroke="#7D7D7D" stroke-width="1.66667" stroke-linecap="round" stroke-linejoin="round"/>
<path d="M10 14.1667H10.0083" stroke="#7D7D7D" stroke-width="1.66667" stroke-linecap="round" stroke-linejoin="round"/>
</svg>
