<svg width="20" height="20" viewBox="0 0 20 20" fill="none" xmlns="http://www.w3.org/2000/svg">
<path d="M17.2495 5.35649C15.6901 4.21486 13.7484 3.5332 12.0554 3.5332C10.3514 3.5332 9.09204 4.22025 8.31237 5.57513C7.70149 6.63673 7.40442 8.08414 7.40442 10.0001C7.40442 11.9159 7.70139 13.3633 8.31237 14.425C9.09214 15.7799 10.3515 16.4669 12.0554 16.4669C13.7484 16.4669 15.6901 15.7853 17.2495 14.6436C19.0232 13.3449 20 11.6958 20 10.0002C20 8.3042 19.0232 6.65518 17.2495 5.35649ZM16.4111 13.4984C15.106 14.454 13.4369 15.0476 12.0554 15.0476C10.5507 15.0476 8.82354 14.4739 8.82354 9.99996C8.82354 5.52603 10.5507 4.95223 12.0554 4.95223C13.437 4.95223 15.106 5.5458 16.4111 6.50144C17.79 7.51101 18.581 8.78614 18.581 9.99996C18.5809 11.2137 17.79 12.4888 16.4111 13.4984Z" fill="#FCF208"/>
<path d="M6.06013 4.25217L0.709562 4.25208C0.317695 4.25208 0 4.56977 0 4.96164C0 5.3535 0.317695 5.6712 0.709562 5.6712L6.06013 5.67129C6.452 5.67129 6.7697 5.3536 6.7697 4.96173C6.7697 4.56986 6.452 4.25217 6.06013 4.25217Z" fill="#FCF208"/>
<path d="M6.06013 6.84009H0.709562C0.317695 6.84009 0 7.15778 0 7.54965C0 7.94152 0.317695 8.25921 0.709562 8.25921H6.06013C6.452 8.25921 6.7697 7.94152 6.7697 7.54965C6.7697 7.15778 6.452 6.84009 6.06013 6.84009Z" fill="#FCF208"/>
<path d="M6.06013 9.42798H0.709562C0.317695 9.42798 0 9.74567 0 10.1375C0 10.5294 0.317695 10.8471 0.709562 10.8471H6.06013C6.452 10.8471 6.7697 10.5294 6.7697 10.1375C6.7697 9.74567 6.452 9.42798 6.06013 9.42798Z" fill="#FCF208"/>
<path d="M6.06013 12.0159H0.709562C0.317695 12.0159 0 12.3336 0 12.7254C0 13.1173 0.317695 13.435 0.709562 13.435H6.06013C6.452 13.435 6.7697 13.1173 6.7697 12.7254C6.7697 12.3336 6.452 12.0159 6.06013 12.0159Z" fill="#FCF208"/>
<path d="M6.06013 14.6039H0.709562C0.317695 14.6039 0 14.9216 0 15.3134C0 15.7053 0.317695 16.023 0.709562 16.023H6.06013C6.452 16.023 6.7697 15.7053 6.7697 15.3134C6.7697 14.9216 6.452 14.6039 6.06013 14.6039Z" fill="#FCF208"/>
</svg>
