<?xml version="1.0" encoding="UTF-8"?>
<svg xmlns="http://www.w3.org/2000/svg" style="display: none;">
  <symbol id="dnk" viewBox="0 0 30 30" width="30" height="30">
    <path d="M29.1394 7.84235C28.5557 7.72223 27.9849 8.0967 27.8642 8.68036C27.8613 8.69431 27.6293 9.70438 26.7846 11.004L18.9966 3.21599C20.2929 2.37381 21.3026 2.14018 21.3259 2.135C21.9061 2.01171 22.2784 1.44259 22.1581 0.861089C22.0373 0.277435 21.4661 -0.0973291 20.8829 0.0230846C20.7765 0.0450957 18.2478 0.591058 15.7575 3.08119C13.2718 5.56672 13.2869 9.39234 13.7447 13.811C9.41138 13.3336 5.69294 13.1457 3.23863 15.5999C0.680739 18.1578 0.0539261 20.7478 0.0284622 20.8568C-0.106913 21.437 0.253609 22.0172 0.834098 22.1527C0.916532 22.172 0.998965 22.1812 1.0801 22.1812C1.57025 22.1811 2.01378 21.845 2.12988 21.3471C2.13333 21.3326 2.40279 20.2769 3.29747 18.921L11.0796 26.7031C9.72083 27.5998 8.66444 27.8677 8.65337 27.8706C8.07302 28.006 7.71236 28.5863 7.84788 29.1665C7.96412 29.6644 8.4075 30.0006 8.89765 30.0006C8.97879 30.0006 9.06136 29.9914 9.1438 29.9722C9.2527 29.9467 11.8427 29.3197 14.4006 26.762C16.8549 24.3078 16.6669 20.5894 16.1897 16.2561C20.6086 16.7137 24.434 16.7288 26.9194 14.2433C29.4096 11.753 29.9555 9.22431 29.9775 9.11785C30.0981 8.53405 29.723 7.9632 29.1394 7.84235ZM26.0961 11.9429C25.8859 12.1983 25.6529 12.4576 25.3933 12.7172C25.2243 12.8862 25.044 13.0397 24.8524 13.179L16.8216 5.14822C16.9609 4.95645 17.1144 4.77633 17.2834 4.6073C17.5428 4.34791 17.8024 4.11471 18.0576 3.90467L26.0961 11.9429ZM21.8023 14.2359L15.7645 8.19798C15.8527 7.44615 16.0077 6.78237 16.2448 6.19857L23.8019 13.7557C23.2181 13.9928 22.5543 14.1477 21.8023 14.2359ZM8.3104 15.7196L14.2809 21.6901C14.2151 22.4419 14.0786 23.1253 13.8415 23.7302L6.27027 16.1588C6.87507 15.922 7.55842 15.7853 8.3104 15.7196ZM9.89347 15.6753C11.1291 15.7008 12.5032 15.8413 13.9907 16.0098C14.1593 17.4973 14.2997 18.8714 14.3252 20.107L9.89347 15.6753ZM3.98802 17.984C4.21949 17.7013 4.47687 17.4136 4.76445 17.1259C4.90731 16.983 5.05966 16.8542 5.21935 16.7359L13.2645 24.7811C13.1461 24.9408 13.0173 25.0932 12.8745 25.2359C12.5867 25.5236 12.299 25.7808 12.0163 26.0123L3.98802 17.984ZM15.9416 14.0588C15.7638 12.408 15.6595 10.9743 15.6729 9.73401L20.2665 14.3274C19.0264 14.3411 17.5925 14.2367 15.9416 14.0588Z"/>
  </symbol>

  <symbol id="vneshnost" width="30" height="30" viewBox="0 0 30 30">
    <path d="M26.9424 10.4432C26.8399 10.0149 25.9009 6.22488 24.5214 5.04237C23.7126 4.34928 21.9642 4.01404 20.2735 3.68973C19.4669 3.53509 18.3771 3.32612 18.072 3.15812C17.9263 2.76066 17.8866 1.57724 17.9433 0.643916C17.9535 0.476829 17.8943 0.312928 17.7796 0.191065C17.6649 0.0692024 17.5051 0 17.3375 0H12.6623C12.4949 0 12.3349 0.0692024 12.2202 0.191065C12.1054 0.312928 12.0463 0.476829 12.0563 0.643916C12.1132 1.57709 12.0733 2.76066 11.9277 3.15812C11.6225 3.32612 10.5329 3.53509 9.72631 3.68973C8.0354 4.01389 6.28698 4.34913 5.47825 5.04237C4.09891 6.22488 3.15982 10.0149 3.05723 10.4432C3.01929 10.6013 3.04661 10.7681 3.13281 10.9061C3.21901 11.044 3.35696 11.1416 3.5157 11.1769L6.56986 11.8571C6.80767 11.9101 7.05458 11.8156 7.19617 11.6169L7.52033 11.1618C7.81262 13.5681 8.33437 18.1512 8.33437 20.1989C8.33437 22.9327 6.96762 26.0124 6.95381 26.0432C6.86124 26.2497 6.89098 26.4907 7.03136 26.6683C7.09237 26.7455 8.55002 28.5685 10.4948 29.2524C11.8118 29.7156 13.5607 29.9068 14.4859 29.9797C14.6567 29.993 14.8294 29.9998 14.9997 29.9998C15.1699 29.9998 15.3426 29.993 15.5134 29.9797C16.4388 29.9068 18.1877 29.7156 19.5046 29.2524C21.4493 28.5686 22.9069 26.7455 22.9679 26.6683C23.1085 26.4906 23.1384 26.2496 23.0455 26.0429C23.0317 26.0121 21.6649 22.9395 21.6649 20.1989C21.6649 18.1168 22.2044 13.413 22.4935 11.042L22.9755 11.6439C23.1218 11.8266 23.3598 11.9087 23.5879 11.8556L26.4904 11.1754C26.6477 11.1386 26.7838 11.0405 26.8685 10.9032C26.9535 10.7658 26.98 10.6003 26.9424 10.4432ZM11.1547 12.065C11.0424 12.1789 10.8861 12.2426 10.7252 12.2426C10.5658 12.2426 10.408 12.1789 10.2957 12.065C10.1834 11.9527 10.1182 11.7964 10.1182 11.6356C10.1182 11.4762 10.1834 11.3199 10.2957 11.2061C10.4095 11.0938 10.5658 11.0285 10.7252 11.0285C10.8845 11.0285 11.0409 11.0938 11.1547 11.2061C11.267 11.3199 11.3322 11.4762 11.3322 11.6356C11.3322 11.7964 11.267 11.9527 11.1547 12.065ZM15.4297 24.0799C15.3159 24.1922 15.1596 24.2574 15.0003 24.2574C14.8394 24.2574 14.6831 24.1922 14.5708 24.0799C14.457 23.966 14.3932 23.8097 14.3932 23.6504C14.3932 23.491 14.457 23.3347 14.5708 23.2209C14.6831 23.1086 14.8394 23.0433 15.0003 23.0433C15.1596 23.0433 15.3159 23.1086 15.4297 23.2209C15.542 23.3347 15.6073 23.491 15.6073 23.6504C15.6073 23.8097 15.542 23.966 15.4297 24.0799ZM19.7033 12.065C19.591 12.1789 19.4347 12.2426 19.2738 12.2426C19.1145 12.2426 18.9582 12.1789 18.8443 12.065C18.732 11.9527 18.6668 11.7949 18.6668 11.6356C18.6668 11.4762 18.732 11.3199 18.8443 11.2061C18.9582 11.0938 19.1145 11.0285 19.2738 11.0285C19.4348 11.0285 19.591 11.0938 19.7033 11.2061C19.8171 11.3199 19.8809 11.4762 19.8809 11.6356C19.8809 11.7964 19.8171 11.9527 19.7033 12.065Z"/>
  </symbol>

  <symbol id="face" width="30" height="30" viewBox="0 0 30 30">
    <path d="M26.9594 15.3099C26.3213 14.507 25.5273 13.5077 25.7587 12.4307C26.1725 10.5048 26.2254 6.44489 23.8002 3.44341C21.954 1.15846 19.0992 0 15.3151 0C10.9499 0 7.59884 1.13126 5.35494 3.36231C3.28923 5.41599 2.2417 8.29747 2.2417 11.9268C2.2417 17.2025 5.69285 19.5778 7.54675 20.8538C7.90098 21.0977 8.33978 21.3997 8.44296 21.5336C8.59972 21.9936 8.10357 22.9957 7.71175 23.5375C7.60642 23.6824 7.56456 23.8638 7.59588 24.0404C7.62703 24.2169 7.72906 24.373 7.87774 24.4729L15.9507 29.8882C16.0297 29.9412 16.1174 29.9751 16.2074 29.9901C16.2444 29.9965 16.2825 30 16.3213 30C16.6855 30 16.9806 29.7048 16.9806 29.3407C16.9806 29.2678 16.9689 29.1977 16.947 29.132C16.8807 28.8059 16.5964 26.9929 18.0611 25.3699C18.6435 24.7246 19.494 24.4368 20.8191 24.4368C21.2551 24.4368 21.6774 24.4666 22.086 24.4953C22.4332 24.5197 22.7612 24.543 23.052 24.543C23.052 24.543 23.0521 24.543 23.0523 24.543C23.4454 24.543 23.8935 24.5084 24.235 24.2522C24.9802 23.6932 25.164 22.9729 25.3117 22.3943C25.3659 22.182 25.4172 21.9814 25.4901 21.8097C25.6631 21.4027 25.7164 21.1876 25.7594 21.0145C25.7841 20.914 25.8008 20.8475 25.8415 20.7453C25.8871 20.6304 25.9344 20.5205 25.9852 20.4023C26.0579 20.2327 26.1374 20.0476 26.2288 19.814C26.2661 19.7189 26.3086 19.6309 26.3536 19.5376C26.5115 19.2109 26.6896 18.842 26.6579 18.1886C26.7088 18.1548 26.7857 18.1119 26.8422 18.0808C27.1623 17.9029 27.7582 17.5719 27.7582 16.8051C27.7579 16.3147 27.4054 15.8713 26.9594 15.3099ZM13.2677 18.1052C13.2194 18.1327 12.3547 18.6158 11.2684 18.6158C10.8893 18.6158 10.4835 18.5571 10.0757 18.3994C9.00818 17.987 8.22258 17.0291 7.74044 15.5527C7.28879 14.1691 7.38917 13.0843 8.03928 12.3284C9.15159 11.0342 11.3594 11.3596 11.6075 11.401C11.9668 11.4608 12.2093 11.8005 12.1494 12.1597C12.0896 12.5189 11.7496 12.7597 11.3912 12.7019C10.9175 12.6254 9.57324 12.5637 9.03769 13.1898C8.71033 13.5722 8.69565 14.2296 8.99401 15.1436C9.34725 16.2251 9.87093 16.9065 10.5509 17.1692C11.5335 17.5493 12.6044 16.9652 12.6149 16.9594C12.9311 16.7796 13.334 16.8897 13.5141 17.206C13.6946 17.5223 13.5842 17.9248 13.2677 18.1052Z"/>
  </symbol>

  <symbol id="beard" width="30" height="30" viewBox="0 0 30 30">
    <path d="M28.5379 18.9942C27.2666 20.4464 25.2734 21.1826 22.6139 21.1826C17.7892 21.1826 15.811 19.5917 15 18.2713C14.1891 19.5915 12.2107 21.1826 7.3861 21.1826C4.72653 21.1826 2.7334 20.4464 1.46205 18.9942C-0.310714 16.9693 0.018494 14.3242 0.0334196 14.2127C0.0729864 13.915 0.339535 13.7025 0.638469 13.7258C0.937685 13.7507 1.16467 14.0058 1.15467 14.306C1.1534 14.5137 1.23676 15.5872 3.02698 15.6289L3.04501 15.6292C3.8462 15.6291 4.69654 14.2842 5.51885 12.9839C6.75359 11.0309 8.15322 8.81737 10.4664 8.81737C13.0152 8.81737 14.352 9.96509 15 10.8375C15.648 9.96523 16.9849 8.81737 19.5336 8.81737C21.8467 8.81737 23.2462 11.0309 24.481 12.9837C25.3033 14.2842 26.1536 15.6292 26.9549 15.6291L26.9731 15.6288C28.7632 15.5871 28.8465 14.5136 28.8451 14.2989C28.835 13.9987 29.0623 13.747 29.3615 13.7221C29.6586 13.6976 29.9268 13.9149 29.9665 14.2125C29.9815 14.3242 30.3107 16.9693 28.5379 18.9942Z"/>
  </symbol>

  <symbol id="cloth" width="35" height="35" viewBox="0 0 30 30">
    <path d="M9.75 0.81279C9.75 2.60513 11.2076 4.06272 12.9999 4.06272C14.7906 4.06272 16.2498 2.60513 16.2498 0.81279H9.75Z"/>
    <path d="M25.5903 4.16997L19.9029 0.920038C19.781 0.850164 19.6413 0.81279 19.4999 0.81279H17.8749C17.8749 3.50048 15.6877 5.68768 13 5.68768C10.3123 5.68768 8.12511 3.50048 8.12511 0.81279H6.50015C6.35878 0.81279 6.22065 0.850164 6.09716 0.920038L0.409773 4.16997C0.0847793 4.35521 -0.0712174 4.7387 0.0311555 5.09782L1.65612 10.7852C1.77637 11.2077 2.21511 11.4563 2.63435 11.3507L4.87518 10.7917V24.3748C4.87518 24.8233 5.23917 25.1873 5.68766 25.1873H20.3124C20.7609 25.1873 21.1248 24.8233 21.1248 24.3748V10.7917L23.3657 11.3507C23.7849 11.4579 24.222 11.2077 24.3439 10.7852L25.9689 5.09782C26.0712 4.7387 25.9152 4.35521 25.5903 4.16997Z"/>
  </symbol>

  <symbol id="color" width="25" height="25" viewBox="0 0 25 25">
    <path d="M12.5 0C5.5972 0 0 5.5972 0 12.5C0 19.4028 5.5972 25 12.5 25C13.6528 25 14.5833 24.0695 14.5833 22.9167C14.5833 22.375 14.382 21.8889 14.0417 21.5208C13.7153 21.1528 13.5208 20.6736 13.5208 20.1389C13.5208 18.9861 14.4514 18.0555 15.6042 18.0555H18.0555C21.8889 18.0555 25 14.9444 25 11.1111C25 4.9722 19.4028 0 12.5 0ZM4.86113 12.5C3.70833 12.5 2.7778 11.5695 2.7778 10.4167C2.7778 9.26387 3.70833 8.33333 4.86113 8.33333C6.01393 8.33333 6.94447 9.26387 6.94447 10.4167C6.94447 11.5695 6.01387 12.5 4.86113 12.5ZM9.0278 6.94447C7.875 6.94447 6.94447 6.01393 6.94447 4.86113C6.94447 3.70833 7.875 2.7778 9.0278 2.7778C10.1806 2.7778 11.1111 3.70833 11.1111 4.86113C11.1111 6.01393 10.1805 6.94447 9.0278 6.94447ZM15.9722 6.94447C14.8194 6.94447 13.8889 6.01393 13.8889 4.86113C13.8889 3.70833 14.8194 2.7778 15.9722 2.7778C17.125 2.7778 18.0555 3.70833 18.0555 4.86113C18.0555 6.01393 17.125 6.94447 15.9722 6.94447ZM20.1389 12.5C18.9861 12.5 18.0555 11.5695 18.0555 10.4167C18.0555 9.26387 18.9861 8.33333 20.1389 8.33333C21.2917 8.33333 22.2222 9.26387 22.2222 10.4167C22.2222 11.5695 21.2917 12.5 20.1389 12.5Z"/>
  </symbol>

  <symbol id="faceStruct" width="25" height="25" viewBox="0 0 25 25">
    <path d="M21.1649 11.2637C21.439 10.8614 21.8121 10.1826 22.0545 9.21307C22.4234 7.73733 22.5005 5.66657 19.7986 2.7277C17.3613 0.07658 13.0334 0 12.5479 0L12.4998 0.000357294L12.4517 0C11.9663 0 7.63824 0.07658 5.2009 2.7277C2.49904 5.66657 2.5761 7.73745 2.94506 9.21307C3.18743 10.1826 3.56068 10.8614 3.83461 11.2637C3.38061 11.6246 2.75844 12.2884 2.75844 13.215C2.75844 14.0607 3.54222 14.8334 4.24121 15.3547V19.4627C4.24121 19.6006 4.301 19.7318 4.40509 19.8223L9.45258 24.2088C10.0399 24.719 10.7916 25.0001 11.5694 25.0001H13.4302C14.2081 25.0001 14.9598 24.7192 15.5471 24.2088L20.5944 19.8223C20.6985 19.7318 20.7583 19.6007 20.7583 19.4627V15.3547C21.4574 14.8334 22.2412 14.0607 22.2412 13.215C22.2412 12.2884 21.6189 11.6246 21.1649 11.2637ZM13.6797 11.0098C13.7326 10.454 14.1559 10.0048 14.7089 9.91813C15.0707 9.8612 15.6154 9.79356 16.1566 9.79356C16.7883 9.79356 17.2744 9.88109 17.6425 10.0613C18.3213 10.3935 18.8151 11.2295 18.8711 12.1416C18.9198 12.9339 18.6311 13.5948 18.0793 13.9548C17.6477 14.2363 17.1115 14.385 16.5283 14.385C15.577 14.385 14.6718 13.9924 14.1661 13.3603C13.6414 12.7046 13.612 11.7201 13.6797 11.0098ZM12.1654 14.4339C12.351 14.251 12.6488 14.251 12.8343 14.4339C12.9765 14.5742 14.2242 15.8353 14.2242 16.9128C14.2242 17.9731 13.1272 18.363 12.5471 18.421C12.5314 18.4226 12.5155 18.4234 12.4997 18.4234C12.4839 18.4234 12.468 18.4226 12.4523 18.421C11.8722 18.363 10.7752 17.9731 10.7752 16.9128C10.7753 15.8353 12.0231 14.5742 12.1654 14.4339ZM6.08651 12.1416C6.14249 11.2295 6.63627 10.3935 7.31513 10.0613C7.68326 9.88109 8.1693 9.79356 8.801 9.79356C9.34218 9.79356 9.88705 9.8612 10.2488 9.91813C10.8017 10.005 11.225 10.4538 11.278 11.0098C11.3456 11.7202 11.3161 12.7044 10.7916 13.3602C10.2859 13.9924 9.38077 14.3849 8.42941 14.3849C7.84631 14.3849 7.30989 14.2362 6.8784 13.9547C6.3265 13.5948 6.0378 12.9341 6.08651 12.1416ZM19.8055 19.2455L14.922 23.4896C14.5081 23.8493 13.9783 24.0473 13.4301 24.0473H11.5694C11.0212 24.0473 10.4915 23.8493 10.0776 23.4896L5.19411 19.2455V15.9658L5.21222 15.9772C5.2882 16.025 5.37609 16.0504 5.46589 16.0504H6.77967L6.72012 18.6234C6.68498 18.9383 6.88816 19.383 8.91748 20.4556C10.4324 21.2565 11.6166 21.3761 12.1876 21.376C12.3296 21.376 12.4349 21.3687 12.4998 21.3624C12.5647 21.3688 12.6699 21.376 12.8121 21.376C13.3832 21.376 14.5674 21.2564 16.0822 20.4556C18.1115 19.383 18.3147 18.9383 18.2795 18.6235L18.22 16.0504H19.5338C19.6236 16.0504 19.7116 16.025 19.7874 15.9772L19.8055 15.9658V19.2455Z"/>
  </symbol>

  <symbol id="random" width="24" height="24" viewBox="0 0 24 24">
    <path d="M11.0091 12.6697C11.4197 11.6966 11.7678 10.9332 12.0536 10.3796C12.2678 9.96897 12.4689 9.62297 12.6564 9.3417C12.8437 9.06043 13.0715 8.78587 13.3393 8.51807C13.6074 8.25017 13.9152 8.04907 14.2636 7.91528C14.6117 7.78136 15 7.71437 15.4288 7.71437H18.8571V10.2858C18.8571 10.4019 18.8994 10.5024 18.9842 10.5871C19.069 10.672 19.1694 10.7144 19.2854 10.7144C19.4106 10.7144 19.5133 10.6743 19.5932 10.5939L23.8791 6.30831C23.9597 6.22786 23.9998 6.12532 23.9998 6.00026C23.9998 5.8752 23.9597 5.77261 23.8791 5.69188L19.6067 1.41947C19.4998 1.33025 19.3923 1.28583 19.2853 1.28583C19.1601 1.28583 19.0577 1.32594 18.9771 1.40638C18.8972 1.48674 18.857 1.58933 18.857 1.71434V4.28563H15.4287C14.8214 4.28563 14.2501 4.35947 13.7142 4.50676C13.1784 4.65406 12.7029 4.84146 12.2878 5.06925C11.8725 5.29695 11.4708 5.6027 11.0823 5.9867C10.6939 6.37051 10.3635 6.74119 10.0913 7.09831C9.81908 7.45534 9.53327 7.90173 9.23422 8.43753C8.93522 8.97323 8.69411 9.44204 8.51107 9.84377C8.32798 10.2456 8.10704 10.7411 7.84815 11.3305C7.43736 12.3036 7.08915 13.0671 6.80348 13.6207C6.58924 14.0313 6.38819 14.3774 6.20083 14.6586C6.01339 14.9399 5.78555 15.2144 5.51774 15.4822C5.24984 15.7503 4.94179 15.9513 4.59358 16.0852C4.24547 16.2191 3.85697 16.2862 3.42845 16.2862H0.428516C0.303456 16.2862 0.200725 16.326 0.120463 16.4065C0.040295 16.4868 0 16.5892 0 16.7144V19.2861C0 19.411 0.0404357 19.5138 0.120791 19.5943C0.201194 19.6746 0.303972 19.7147 0.428844 19.7147H3.42888C4.03616 19.7147 4.60747 19.6409 5.14327 19.4935C5.67897 19.3461 6.15453 19.1586 6.56959 18.931C6.98487 18.7032 7.38661 18.3974 7.77501 18.0134C8.16333 17.6297 8.49385 17.2589 8.76611 16.9019C9.03828 16.5447 9.32405 16.0984 9.62319 15.5627C9.92219 15.0268 10.1634 14.5581 10.3463 14.1564C10.5292 13.7546 10.7501 13.2592 11.0091 12.6697Z"/>
    <path d="M0.428516 7.71424H3.42855C3.82142 7.71424 4.1852 7.77902 4.52008 7.90858C4.85497 8.03814 5.13619 8.19431 5.36384 8.37744C5.59154 8.56057 5.81919 8.81271 6.04689 9.13409C6.27454 9.45565 6.45537 9.73922 6.5893 9.9846C6.72313 10.2302 6.8883 10.5539 7.08475 10.9557C7.7724 9.3396 8.38386 8.12085 8.91961 7.29942C7.49103 5.29053 5.66068 4.28592 3.4285 4.28592H0.428516C0.303456 4.28592 0.200725 4.32603 0.120463 4.40648C0.0402951 4.48674 0 4.58933 0 4.71439V7.28586C0 7.41097 0.0401074 7.51342 0.120463 7.59373C0.200912 7.67418 0.303644 7.71424 0.428516 7.71424Z"/>
    <path d="M19.6074 13.42C19.5002 13.3308 19.393 13.2865 19.2857 13.2865C19.1609 13.2865 19.0581 13.3265 18.9779 13.4069C18.8976 13.4871 18.8575 13.5899 18.8575 13.7147V16.2864H15.4289C15.0359 16.2864 14.6721 16.2216 14.3372 16.0919C14.0024 15.9625 13.7211 15.8063 13.4935 15.6231C13.266 15.4401 13.0382 15.1878 12.8106 14.8663C12.5828 14.5448 12.4019 14.2612 12.268 14.0156C12.1342 13.7704 11.969 13.4463 11.7726 13.0449C11.0851 14.6519 10.4781 15.8707 9.95117 16.7011C10.1921 17.0493 10.4422 17.3596 10.7011 17.6317C10.96 17.904 11.2056 18.1428 11.4377 18.3483C11.6698 18.5535 11.9332 18.7323 12.2278 18.8838C12.5225 19.0356 12.7813 19.1628 13.0048 19.2656C13.2286 19.3683 13.5095 19.4508 13.8487 19.5134C14.1879 19.5757 14.4736 19.6229 14.7058 19.6537C14.9379 19.6849 15.2549 19.7073 15.6567 19.7208C16.0583 19.7343 16.3843 19.7385 16.634 19.7343C16.8843 19.7298 17.2459 19.725 17.7192 19.7208C18.1925 19.7165 18.572 19.7141 18.8577 19.7141V22.2856C18.8577 22.4017 18.9001 22.5021 18.9849 22.5869C19.0696 22.6717 19.1701 22.7141 19.286 22.7141C19.4112 22.7141 19.514 22.674 19.5939 22.5937L23.8798 18.3082C23.96 18.2276 24.0001 18.1252 24.0001 18C24.0001 17.8749 23.96 17.7723 23.8794 17.6921L19.6074 13.42Z"/>
  </symbol>

  <symbol id="arrow" width="10" height="15" viewBox="0 0 10 15">
    <path fill-rule="evenodd" clip-rule="evenodd" d="M9.00061 2.48834L3.98894 7.50001L9.00061 12.5117C9.50436 13.0154 9.50436 13.8292 9.00061 14.3329C8.49686 14.8367 7.68311 14.8367 7.17936 14.3329L1.25061 8.40417C0.746857 7.90042 0.746857 7.08667 1.25061 6.58292L7.17936 0.654174C7.68311 0.150424 8.49686 0.150424 9.00061 0.654174C9.49144 1.15792 9.50436 1.98459 9.00061 2.48834Z"/>
  </symbol>

  <symbol id="male" width="20" height="20" viewBox="0 0 20 20">
    <path d="M19.9892 0.725911C19.9801 0.654093 19.9642 0.58492 19.9379 0.52002C19.9371 0.518392 19.9371 0.516154 19.9367 0.514119C19.9367 0.513713 19.9363 0.513306 19.9359 0.512899C19.907 0.444539 19.8676 0.382487 19.823 0.32491C19.812 0.311279 19.8012 0.297852 19.7896 0.285034C19.742 0.231323 19.6903 0.181681 19.6303 0.141195C19.6287 0.139974 19.6267 0.139567 19.625 0.138346C19.5671 0.100098 19.503 0.0712077 19.4358 0.0484212C19.4191 0.0425211 19.4029 0.0374349 19.3858 0.032959C19.3154 0.0138346 19.243 0 19.1667 0H13.3333C12.8733 0 12.5 0.373332 12.5 0.833333C12.5 1.29333 12.8733 1.66667 13.3333 1.66667H17.1545L12.1808 6.64042C10.8545 5.57963 9.2216 5 7.5 5C3.36466 5 0 8.36466 0 12.5C0 16.6353 3.36466 20 7.5 20C11.6353 20 15 16.6353 15 12.5C15 10.7792 14.4208 9.14673 13.3592 7.81921L18.3333 2.84505V6.66667C18.3333 7.12667 18.7067 7.5 19.1667 7.5C19.6267 7.5 20 7.12667 20 6.66667V0.833333C20 0.815837 19.9959 0.799154 19.9949 0.782064C19.9937 0.762939 19.9917 0.744629 19.9892 0.725911ZM7.5 18.3333C4.28324 18.3333 1.66667 15.7168 1.66667 12.5C1.66667 9.28324 4.28324 6.66667 7.5 6.66667C9.05741 6.66667 10.5237 7.27295 11.6262 8.37158C12.7271 9.47632 13.3333 10.9426 13.3333 12.5C13.3333 15.7168 10.7168 18.3333 7.5 18.3333Z"/>
  </symbol>

  <symbol id="female" width="20" height="20" viewBox="0 0 20 20">
    <path d="M17.0832 7.08333C17.0832 3.17749 13.9057 0 9.99984 0C6.09399 0 2.9165 3.17749 2.9165 7.08333C2.9165 10.7066 5.65271 13.6987 9.1665 14.1134V15.8333H7.49984C7.03984 15.8333 6.6665 16.2067 6.6665 16.6667C6.6665 17.1267 7.03984 17.5 7.49984 17.5H9.1665V19.1667C9.1665 19.6267 9.53984 20 9.99984 20C10.4598 20 10.8332 19.6267 10.8332 19.1667V17.5H12.4998C12.9598 17.5 13.3332 17.1267 13.3332 16.6667C13.3332 16.2067 12.9598 15.8333 12.4998 15.8333H10.8332V14.1134C14.347 13.6987 17.0832 10.7066 17.0832 7.08333ZM4.58317 7.08333C4.58317 4.09668 7.01318 1.66667 9.99984 1.66667C12.9865 1.66667 15.4165 4.09668 15.4165 7.08333C15.4165 10.07 12.9865 12.5 9.99984 12.5C7.01318 12.5 4.58317 10.07 4.58317 7.08333Z"/>
  </symbol>
</svg>
