<svg width="26" height="26" viewBox="0 0 26 26" fill="none" xmlns="http://www.w3.org/2000/svg">
<path d="M6.04297 0V26H12.1395L13.0016 10.309L13.8637 26H19.9602V0H6.04297ZM7.58208 4.0016H8.51935V4.74626C8.51935 5.41078 8.1377 5.98763 7.58208 6.2695V4.0016ZM15.3207 24.4609L14.4483 8.58302H11.5549L10.6827 24.4609H7.58208V7.89926C9.00157 7.55272 10.0585 6.27089 10.0585 4.74646V4.0016H12.2321V7.04312H14.599V5.50381H13.7712V4.0016H15.9449V4.74626C15.9449 6.27089 17.0018 7.55272 18.4211 7.89926V24.4609H15.3207ZM18.4211 6.2695C17.8655 5.98763 17.484 5.41078 17.484 4.74646V4.0016H18.4211V6.2695ZM7.58208 2.46249V1.53911H18.4211V2.46249H7.58208Z" fill="#236FE2"/>
</svg>
