<svg width="22" height="10" viewBox="0 0 22 10" xmlns="http://www.w3.org/2000/svg">
<path fill-rule="evenodd" clip-rule="evenodd" d="M4.06663 6.51664C6.07079 8.26081 8.67079 9.33331 11.5416 9.33331C16.0483 9.33331 19.9266 6.71165 21.7683 2.90915C22.115 2.18331 21.725 1.31665 20.9558 1.05665C20.3166 0.839979 19.6233 1.14331 19.3308 1.74998C17.9225 4.63165 14.965 6.62498 11.5416 6.62498C9.42913 6.62498 7.50079 5.84498 5.99496 4.58831L8.06413 2.51914C8.74663 1.83664 8.26996 0.666645 7.30579 0.666645L1.24996 0.666644C0.654126 0.666644 0.166625 1.15414 0.166625 1.74998L0.166624 7.80581C0.166624 8.76998 1.33663 9.25748 2.01913 8.57498L4.06663 6.51664Z"/>
</svg>
