<svg width="20" height="20" viewBox="0 0 20 20" fill="none" xmlns="http://www.w3.org/2000/svg">
<path d="M0.32108 10.7175L10.0262 19.7026C10.3397 19.993 10.8112 20.0799 11.2207 19.9226C11.6303 19.7655 11.8973 19.3955 11.8973 18.9851L11.8973 15.4462L18.9039 15.4462C19.5094 15.4462 20 14.9918 20 14.4314L20 5.56849C20 5.00806 19.5094 4.5537 18.9039 4.5537L11.8973 4.5537L11.897 1.01479C11.897 0.604408 11.63 0.234348 11.2204 0.0772583C11.0848 0.0253002 10.9424 -2.69919e-06 10.8012 -2.71153e-06C10.516 -2.73647e-06 10.2357 0.103101 10.0258 0.297265L0.320931 9.28235C0.115453 9.47259 8.97766e-07 9.73076 8.74238e-07 9.99988C8.50711e-07 10.269 0.115455 10.5273 0.32108 10.7175ZM9.70501 3.46463L9.70515 5.56863C9.70515 6.12906 10.1959 6.58342 10.8012 6.58342L17.8078 6.58342L17.8078 13.4167L10.8012 13.4167C10.1958 13.4167 9.70515 13.8711 9.70515 14.4315L9.70515 16.5351L2.64609 9.99988L9.70501 3.46463Z" fill="#236FE2"/>
</svg>
