<svg width="33" height="45" viewBox="0 0 33 45" fill="none" xmlns="http://www.w3.org/2000/svg">
<path fill-rule="evenodd" clip-rule="evenodd" d="M19.0397 6.56334C21.5264 5.78492 26.3802 4.26557 28.9858 1.97387C31.9371 -0.621879 32.1374 -0.0238347 32.2434 0.292638L32.25 0.31232C32.1432 1.1593 32.0911 2.13018 32.0378 3.12467C31.93 5.13668 31.817 7.24532 31.2345 8.62009C30.364 10.6744 28.4539 13.0006 27.6076 13.9069C27.1482 14.5362 26.505 15.8101 27.6076 15.8705C28.1371 15.8995 28.8809 15.4826 29.5795 15.0908C30.6993 14.4631 31.7033 13.9001 31.5246 15.3418C31.4289 16.1145 31.1988 16.6157 30.9414 17.1766C30.4187 18.3154 29.783 19.7004 29.9288 24.1028C29.9544 24.8772 29.9851 25.6097 30.0142 26.3036L30.0142 26.3037V26.3038C30.2318 31.4977 30.3591 34.5347 27.6076 36.8665C25.1123 38.9812 20.0395 39.8623 17.815 40.0386C15.2434 40.2423 12.6503 41.6548 9.98096 43.5883C6.64423 46.0051 3.0899 45.2498 3.45258 41.8512C3.74273 39.1323 4.49229 36.4385 4.8308 35.4315C4.91662 35.2356 5.00407 35.0053 5.0842 34.7483L5.30606 33.8365C5.58944 32.2332 5.40462 30.1247 3.45258 28.6343C0.399198 26.3029 -5.18931 17.4496 11.0834 10.0918L12.4432 4.5033C12.9953 2.23417 15.9371 1.8546 17.0045 3.91471L18.4697 6.74259C18.6414 6.688 18.8322 6.62828 19.0394 6.56341L19.0397 6.56334ZM30.4157 4.39759C30.474 4.40309 30.5235 4.44423 30.5417 4.50235C30.5598 4.56059 30.543 4.6242 30.4989 4.66449L29.8974 5.21363L30.0748 6.02691C30.0878 6.0867 30.0655 6.14854 30.0178 6.18441C29.9703 6.22027 29.907 6.22314 29.8567 6.19183L29.1706 5.76467L28.4845 6.19183C28.4613 6.20628 28.4353 6.21346 28.4094 6.21346C28.3792 6.21346 28.3491 6.20378 28.3235 6.18441C28.2758 6.14854 28.2535 6.0867 28.2665 6.02691L28.4439 5.21363L27.8424 4.66449C27.7983 4.6242 27.7815 4.56046 27.7996 4.50235C27.8179 4.44434 27.8673 4.4032 27.9256 4.39759L28.7215 4.32238L29.0359 3.55583C29.059 3.49951 29.1118 3.46317 29.1706 3.46317C29.2295 3.46317 29.2823 3.49951 29.3055 3.55583L29.62 4.32238L30.4157 4.39759ZM6.46641 38.2942L14.5528 5.05972C14.6177 4.79276 14.9638 4.7481 15.0894 4.99047L17.7097 10.0478C18.3296 11.1449 17.996 12.6282 17.8406 13.3192L17.8406 13.3193C17.8141 13.4369 17.7928 13.5315 17.7823 13.5975L14.431 31.9164C14.3707 32.2456 14.6628 32.5267 14.9733 32.4383L24.2136 29.8081C24.3224 29.7771 24.4154 29.7034 24.473 29.6025L26.4257 26.1808C26.6597 25.7708 27.265 25.967 27.2341 26.4429L26.7386 34.0669C26.7181 34.3831 26.51 34.6524 26.2177 34.741L7.77209 40.3334C6.88685 40.5967 6.06841 39.7446 6.32134 38.8229L6.46641 38.2942Z" fill="#F9F9F9"/>
</svg>
