<svg width="146" height="52" viewBox="0 0 146 52" fill="none" xmlns="http://www.w3.org/2000/svg">
<path d="M33.189 0.583942C35.0724 0.583942 36.2738 1.09453 36.7934 2.11569C37.3454 3.13686 37.4103 4.46119 36.9882 6.08868L35.2347 13.0294C34.7801 14.8484 33.8709 16.2525 32.5071 17.2417C31.1433 18.231 29.4547 18.7416 27.4414 18.7735L32.6045 27.8683H23.1551L17.9434 18.965H10.5398L8.29922 27.8683H0.700775L4.79224 11.8327H27.9772L29.0001 7.71616H5.81511L2.55168 0.583942H33.189Z" fill="#F5F5F5"/>
<path d="M74.7784 0.583942L67.8618 27.8683H41.4621C39.5138 27.8683 38.1337 27.2939 37.3219 26.1451C36.5101 24.9962 36.3315 23.5602 36.7861 21.837L42.1927 0.583942H49.8886L44.7742 20.6882H62.0656L67.1799 0.583942H74.7784Z" fill="#F5F5F5"/>
<path d="M98.4504 17.8162L97.7198 20.6882H73.6094L71.8072 27.8683H99.4246C99.8792 27.8683 100.383 27.7406 100.935 27.4853C101.487 27.1981 102.006 26.8471 102.493 26.4323C103.013 26.0174 103.467 25.5707 103.857 25.092C104.247 24.5814 104.49 24.1027 104.588 23.656L107.9 10.6361H83.7893L84.5199 7.76403H108.63L110.433 0.583942H82.8639C82.4417 0.583942 81.9547 0.727544 81.4026 1.01475C80.8506 1.27004 80.3148 1.62107 79.7953 2.06783C79.2757 2.48268 78.8049 2.94539 78.3827 3.45598C77.9931 3.93465 77.7495 4.39737 77.6521 4.84413L74.34 17.8162H98.4504Z" fill="#F5F5F5"/>
<path d="M137.92 0.583942L135.387 10.5882H119.654L122.187 0.583942H114.589L107.672 27.8683H115.271L117.852 17.7683H133.585L131.003 27.8683H138.602L145.518 0.583942H137.92Z" fill="#F5F5F5"/>
<path d="M30.8268 47.7332C30.7005 47.7332 30.6058 47.6898 30.5426 47.6029C30.4921 47.5533 30.4669 47.485 30.4669 47.3981C30.4669 47.3609 30.4732 47.3237 30.4858 47.2865L33.0998 35.1681C33.1251 35.0315 33.1882 34.9199 33.2892 34.833C33.3902 34.7461 33.5102 34.7027 33.6491 34.7027H38.5551C39.881 34.7027 40.9039 34.9695 41.6237 35.5031C42.3561 36.0244 42.7223 36.7814 42.7223 37.7742C42.7223 38.0844 42.6844 38.4195 42.6087 38.7794C42.4193 39.6853 42.0341 40.4485 41.4532 41.069C40.8723 41.6771 40.1525 42.1177 39.2938 42.3907L41.0365 47.1375C41.0491 47.1624 41.0554 47.1934 41.0554 47.2306C41.0554 47.2678 41.0491 47.3051 41.0365 47.3423C41.0239 47.454 40.967 47.5471 40.866 47.6215C40.765 47.696 40.664 47.7332 40.5629 47.7332H38.8392C38.6372 47.7332 38.4919 47.6898 38.4036 47.6029C38.3152 47.5036 38.2457 47.3795 38.1952 47.2306L36.7177 42.8188H34.0848L33.1187 47.2865C33.0935 47.4106 33.024 47.516 32.9104 47.6029C32.8094 47.6898 32.6894 47.7332 32.5505 47.7332H30.8268ZM37.1913 40.7153C37.9616 40.7153 38.5677 40.5478 39.0097 40.2127C39.4643 39.8777 39.7611 39.3937 39.9 38.7608C39.9379 38.5498 39.9568 38.3698 39.9568 38.2209C39.9568 37.2529 39.3191 36.769 38.0437 36.769H35.3728L34.5394 40.7153H37.1913Z" fill="#236FE2"/>
<path d="M46.9652 47.9194C45.6898 47.9194 44.6985 47.6153 43.9913 47.0072C43.2841 46.3991 42.9305 45.5739 42.9305 44.5314C42.9305 44.3577 42.9558 44.0847 43.0063 43.7124C43.12 43.0546 43.2399 42.5086 43.3662 42.0742C43.7072 40.7588 44.3386 39.7287 45.2604 38.9841C46.1822 38.2395 47.3819 37.8672 48.8594 37.8672C50.1348 37.8672 51.1261 38.1713 51.8333 38.7794C52.5531 39.3875 52.913 40.2189 52.913 41.2738C52.913 41.4351 52.8877 41.7019 52.8372 42.0742C52.6478 42.9678 52.5278 43.5138 52.4773 43.7124C52.1237 45.0402 51.4923 46.0765 50.5831 46.8211C49.6739 47.5533 48.4679 47.9194 46.9652 47.9194ZM47.1546 46.0765C47.8365 46.0765 48.4174 45.8717 48.8973 45.4622C49.3771 45.0402 49.7181 44.4259 49.9201 43.6193C50.0085 43.2718 50.1159 42.7878 50.2421 42.1673C50.2927 41.795 50.3179 41.5344 50.3179 41.3855C50.3179 40.2686 49.7686 39.7101 48.67 39.7101C47.988 39.7101 47.4072 39.9211 46.9273 40.343C46.4601 40.765 46.1254 41.3731 45.9234 42.1673C45.7845 42.6017 45.6771 43.0857 45.6014 43.6193C45.5508 43.8799 45.5256 44.1591 45.5256 44.457C45.5256 45.5366 46.0686 46.0765 47.1546 46.0765Z" fill="#236FE2"/>
<path d="M54.1976 47.7332C54.0713 47.7332 53.9703 47.6898 53.8945 47.6029C53.8314 47.516 53.8125 47.4106 53.8377 47.2865L56.5085 34.9633C56.5338 34.8392 56.5969 34.7337 56.698 34.6468C56.799 34.56 56.9126 34.5165 57.0389 34.5165H58.6111C58.75 34.5165 58.8573 34.56 58.9331 34.6468C58.9836 34.7089 59.0089 34.7833 59.0089 34.8702C59.0089 34.895 59.0026 34.9261 58.9899 34.9633L56.3191 47.2865C56.2939 47.423 56.2244 47.5347 56.1108 47.6215C56.0097 47.696 55.8961 47.7332 55.7698 47.7332H54.1976Z" fill="#236FE2"/>
<path d="M63.2073 47.9194C61.9951 47.9194 61.0606 47.6215 60.4039 47.0258C59.7599 46.4302 59.4379 45.5739 59.4379 44.457C59.4379 44.035 59.4695 43.6627 59.5326 43.3401C59.5579 43.1415 59.6273 42.8313 59.741 42.4093C60.1072 40.9946 60.7891 39.8839 61.7867 39.0772C62.7969 38.2706 63.9966 37.8672 65.3857 37.8672C66.6232 37.8672 67.5577 38.1837 68.1891 38.8166C68.8331 39.4371 69.1551 40.2934 69.1551 41.3855C69.1551 41.795 69.1046 42.2604 69.0036 42.7816L68.9089 43.1725C68.8836 43.2966 68.8142 43.4021 68.7005 43.489C68.5995 43.5759 68.4795 43.6193 68.3406 43.6193H62.0519L62.014 43.7682C61.9761 43.9668 61.9572 44.1715 61.9572 44.3825C61.9572 44.9161 62.0898 45.3505 62.355 45.6856C62.6328 46.0206 63.0369 46.1882 63.5672 46.1882C64.2997 46.1882 64.9563 45.9027 65.5372 45.3319C65.6887 45.1954 65.8024 45.1085 65.8782 45.0713C65.9539 45.034 66.0613 45.0154 66.2002 45.0154H67.8481C67.9618 45.0154 68.0502 45.0526 68.1133 45.1271C68.1638 45.1767 68.1891 45.2388 68.1891 45.3133C68.1891 45.3381 68.1828 45.3691 68.1701 45.4063C68.0817 45.7042 67.8102 46.0517 67.3556 46.4488C66.9137 46.8459 66.3265 47.1934 65.594 47.4912C64.8742 47.7766 64.0787 47.9194 63.2073 47.9194ZM66.579 42.0556L66.598 41.9998C66.6485 41.764 66.6737 41.5282 66.6737 41.2924C66.6737 40.7588 66.5285 40.3368 66.2381 40.0266C65.9602 39.7163 65.5562 39.5612 65.0258 39.5612C64.3691 39.5612 63.8072 39.7846 63.3399 40.2314C62.8727 40.6781 62.5633 41.2676 62.4118 41.9998L62.3928 42.0556H66.579Z" fill="#236FE2"/>
<path d="M74.7543 47.7332C74.6154 47.7332 74.508 47.6898 74.4322 47.6029C74.3691 47.516 74.3502 47.4106 74.3754 47.2865L77.0084 35.1681C77.0336 35.0315 77.0968 34.9199 77.1978 34.833C77.2988 34.7461 77.4188 34.7027 77.5577 34.7027H82.4068C83.7454 34.7027 84.7998 34.9757 85.5701 35.5217C86.3531 36.0554 86.7445 36.8372 86.7445 37.8672C86.7445 38.1527 86.7067 38.4753 86.6309 38.8352C86.0374 41.5654 84.1811 42.9305 81.0619 42.9305H78.0312L77.0841 47.2865C77.0589 47.423 76.9957 47.5347 76.8947 47.6215C76.7937 47.696 76.6737 47.7332 76.5348 47.7332H74.7543ZM81.1188 40.8643C81.8386 40.8643 82.451 40.6905 82.9561 40.343C83.4613 39.9956 83.7833 39.493 83.9222 38.8352C83.9853 38.525 84.0169 38.2768 84.0169 38.0906C84.0169 37.6563 83.8717 37.3274 83.5812 37.104C83.3034 36.8806 82.8235 36.769 82.1416 36.769H79.3382L78.448 40.8643H81.1188Z" fill="#236FE2"/>
<path d="M87.0316 47.7332C86.9053 47.7332 86.8043 47.6898 86.7286 47.6029C86.6654 47.516 86.6465 47.4106 86.6717 47.2865L89.3426 34.9633C89.3678 34.8392 89.4309 34.7337 89.532 34.6468C89.633 34.56 89.7466 34.5165 89.8729 34.5165H91.4451C91.584 34.5165 91.6914 34.56 91.7671 34.6468C91.8176 34.7089 91.8429 34.7833 91.8429 34.8702C91.8429 34.895 91.8366 34.9261 91.824 34.9633L89.1531 47.2865C89.1279 47.423 89.0584 47.5347 88.9448 47.6215C88.8437 47.696 88.7301 47.7332 88.6038 47.7332H87.0316Z" fill="#236FE2"/>
<path d="M95.2837 47.9194C94.1977 47.9194 93.3768 47.6215 92.8212 47.0258C92.2656 46.4178 91.9878 45.5987 91.9878 44.5687C91.9878 44.2584 92.0193 43.8985 92.0825 43.489L92.3477 42.279C92.7139 40.9263 93.2948 39.8528 94.0903 39.0586C94.8859 38.2644 95.9403 37.8672 97.2536 37.8672C97.9861 37.8672 98.5606 37.9789 98.9774 38.2023C99.3941 38.4133 99.735 38.7173 100 39.1144L100.133 38.5002C100.158 38.3636 100.221 38.2582 100.322 38.1837C100.423 38.0968 100.537 38.0534 100.663 38.0534H102.16C102.299 38.0534 102.406 38.0968 102.482 38.1837C102.532 38.2457 102.557 38.3202 102.557 38.4071C102.557 38.4319 102.551 38.4629 102.538 38.5002L100.625 47.2865C100.6 47.423 100.537 47.5347 100.436 47.6215C100.335 47.696 100.221 47.7332 100.095 47.7332H98.5985C98.4596 47.7332 98.3523 47.6898 98.2765 47.6029C98.2134 47.516 98.1944 47.4106 98.2197 47.2865L98.3712 46.5977C97.9166 47.0445 97.462 47.3795 97.0074 47.6029C96.5654 47.8139 95.9908 47.9194 95.2837 47.9194ZM96.1361 45.9276C96.8685 45.9276 97.4746 45.698 97.9545 45.2388C98.4344 44.7672 98.7564 44.2026 98.9205 43.5448C99.0468 43.0732 99.1478 42.5955 99.2236 42.1115C99.2615 41.9005 99.2804 41.7019 99.2804 41.5158C99.2804 41.0194 99.1415 40.6223 98.8637 40.3244C98.5985 40.0142 98.1755 39.8591 97.5946 39.8591C96.3318 39.8591 95.4415 40.6843 94.9238 42.3349C94.8101 42.7072 94.7344 43.0795 94.6965 43.4518C94.646 43.8489 94.6207 44.1343 94.6207 44.308C94.6207 45.3877 95.1258 45.9276 96.1361 45.9276Z" fill="#236FE2"/>
<path d="M104.062 51.2701C103.961 51.2701 103.879 51.239 103.816 51.177C103.765 51.1274 103.74 51.0529 103.74 50.9536C103.74 50.8419 103.772 50.7489 103.835 50.6744L106.146 47.1003L104.308 38.5746C104.283 38.4381 104.308 38.3202 104.384 38.2209C104.473 38.1092 104.605 38.0534 104.782 38.0534H106.203C106.443 38.0534 106.588 38.1713 106.638 38.4071L107.907 44.5128L111.847 38.4071C111.986 38.1713 112.188 38.0534 112.454 38.0534H114.083C114.184 38.0534 114.266 38.0844 114.329 38.1465C114.392 38.2085 114.424 38.283 114.424 38.3698C114.424 38.4443 114.398 38.525 114.348 38.6118L106.26 50.9164C106.121 51.1522 105.919 51.2701 105.653 51.2701H104.062Z" fill="#236FE2"/>
</svg>
