<svg width="360" height="120" viewBox="0 0 360 120" fill="none" xmlns="http://www.w3.org/2000/svg">
<path fill-rule="evenodd" clip-rule="evenodd" d="M50.0949 17.5022C56.6379 15.4264 69.4086 11.3748 76.2641 5.26366C84.0292 -1.65836 84.5562 -0.0635545 84.835 0.780371L84.8525 0.832853C84.5714 3.09146 84.4345 5.68046 84.2942 8.33243C84.0105 13.6978 83.7132 19.3209 82.1805 22.9869C79.8903 28.465 74.8645 34.6681 72.6379 37.085C71.4292 38.7633 69.737 42.1602 72.6379 42.3214C74.0312 42.3988 75.988 41.2868 77.8263 40.2422C80.7724 38.5681 83.414 37.067 82.9439 40.9116C82.692 42.9719 82.0867 44.3085 81.4094 45.8043C80.0341 48.8412 78.3616 52.5345 78.7452 64.274C78.8127 66.3388 78.8934 68.2917 78.9699 70.142L78.9699 70.1435C79.5424 83.9938 79.8772 92.0926 72.6379 98.3107C66.0726 103.95 52.7256 106.3 46.8728 106.77C40.1066 107.313 33.2841 111.079 26.2607 116.235C17.4815 122.68 8.12978 120.666 9.08404 111.603C9.84745 104.353 11.8196 97.1694 12.7102 94.4841C12.936 93.9617 13.1661 93.3476 13.3769 92.6623L13.9607 90.2306C14.7063 85.9552 14.22 80.3326 9.08404 76.358C1.05032 70.141 -13.6535 46.5321 29.1614 26.9115L32.739 12.0088C34.1917 5.95778 41.9318 4.9456 44.7403 10.4392L48.5954 17.9802C49.0473 17.8346 49.5495 17.6753 50.0949 17.5022ZM80.0263 11.7269C80.1798 11.7415 80.31 11.8513 80.3578 12.0062C80.4055 12.1616 80.3614 12.3312 80.2454 12.4386L78.6628 13.903L79.1294 16.0717C79.1636 16.2312 79.1049 16.3961 78.9795 16.4917C78.8544 16.5874 78.6879 16.595 78.5555 16.5115L76.7506 15.3724L74.9453 16.5115C74.8843 16.5501 74.8159 16.5692 74.7477 16.5692C74.6682 16.5692 74.589 16.5434 74.5216 16.4917C74.3962 16.3961 74.3376 16.2312 74.3717 16.0717L74.8383 13.903L73.2558 12.4386C73.1397 12.3312 73.0956 12.1612 73.1433 12.0062C73.1914 11.8516 73.3214 11.7418 73.4748 11.7269L75.5687 11.5263L76.3961 9.48219C76.4568 9.33201 76.5959 9.23508 76.7506 9.23508C76.9053 9.23508 77.0443 9.33201 77.1054 9.48219L77.9327 11.5263L80.0263 11.7269ZM17.0138 102.118L38.2897 13.4926C38.4606 12.7807 39.3712 12.6616 39.7016 13.3079L46.5959 26.794C48.2268 29.7198 47.3491 33.6751 46.9402 35.5179L46.9401 35.5181C46.8705 35.8317 46.8145 36.0841 46.7868 36.2598L37.9693 85.1103C37.8108 85.9883 38.5791 86.7378 39.3961 86.5021L63.7082 79.4883C63.9944 79.4057 64.2391 79.2091 64.3906 78.9399L69.5284 69.8155C70.1441 68.7221 71.7367 69.2454 71.6554 70.5144L70.3517 90.845C70.2976 91.6884 69.7502 92.4064 68.9811 92.6427L20.4492 107.556C18.12 108.258 15.9666 105.985 16.6321 103.528L17.0138 102.118Z" fill="#506482"/>
<path d="M137.266 23.052L131.263 51.618H148.157L146.085 61.5H117.61L125.685 23.052H137.266Z" fill="#506482"/>
<path d="M191.949 23.052L189.983 32.394H170.115L169.105 37.2H187.54L185.68 46.11H167.246L166.077 51.726H186.477L184.458 61.5H152.583L160.605 23.052H191.949Z" fill="#506482"/>
<path d="M232.489 40.332L228.026 61.5H220.695L221.067 57.72C218.623 60.78 215.135 62.31 210.601 62.31C205.749 62.31 201.977 60.798 199.286 57.774C196.629 54.75 195.301 50.736 195.301 45.732C195.301 38.964 197.267 33.348 201.198 28.884C205.129 24.42 210.389 22.188 216.976 22.188C221.403 22.188 225.122 23.358 228.132 25.698C231.143 28.038 232.648 31.422 232.648 35.85V36.552H221.651C221.403 33.276 219.632 31.638 216.339 31.638C214.674 31.638 213.204 32.07 211.929 32.934C210.654 33.798 209.663 34.95 208.954 36.39C208.281 37.794 207.768 39.27 207.414 40.818C207.095 42.366 206.936 43.932 206.936 45.516C206.936 50.736 209.114 53.346 213.47 53.346C216.764 53.346 219.119 51.762 220.536 48.594H215.223L216.976 40.332H232.489Z" fill="#506482"/>
<path d="M276.015 23.052L274.05 32.394H254.181L253.171 37.2H271.606L269.746 46.11H251.312L250.143 51.726H270.543L268.525 61.5H236.65L244.671 23.052H276.015Z" fill="#506482"/>
<path d="M318.627 23.052L310.605 61.5H299.502L294.136 46.164C293.003 42.924 292.277 40.458 291.958 38.766C291.675 41.286 291.232 44.04 290.63 47.028L287.655 61.5H276.499L284.521 23.052H295.996L301.149 38.226C301.999 40.674 302.742 43.104 303.38 45.516C303.592 43.104 304.053 40.116 304.761 36.552L307.471 23.052H318.627Z" fill="#506482"/>
<path d="M327.753 23.052H342.203C345.709 23.052 348.525 23.376 350.65 24.024C353.519 24.888 355.785 26.67 357.45 29.37C359.15 32.07 360 35.292 360 39.036C360 45.228 358.229 50.412 354.688 54.588C352.315 57.36 349.747 59.214 346.984 60.15C344.222 61.05 340.769 61.5 336.625 61.5H319.731L327.753 23.052ZM337.156 32.664L333.172 51.78H336.838C338.75 51.78 340.22 51.654 341.247 51.402C342.309 51.15 343.266 50.7 344.116 50.052C345.355 49.08 346.365 47.676 347.144 45.84C347.923 43.968 348.313 42.024 348.313 40.008C348.313 37.2 347.622 35.274 346.241 34.23C344.859 33.186 342.734 32.664 339.866 32.664H337.156Z" fill="#506482"/>
<path d="M122.151 77.1347H129.695C131.023 77.1347 132.077 77.2247 132.856 77.4047C133.918 77.6567 134.742 78.1967 135.326 79.0247C135.928 79.8347 136.229 80.8337 136.229 82.0217C136.229 83.4077 135.849 84.5777 135.087 85.5317C134.326 86.4677 133.29 87.0527 131.979 87.2867C132.688 87.5927 133.183 87.9977 133.467 88.5017C133.768 89.0057 133.918 89.7167 133.918 90.6347C133.918 90.7607 133.883 91.3547 133.812 92.4167C133.741 93.4787 133.706 94.2707 133.706 94.7927C133.706 95.4407 133.803 95.9627 133.998 96.3587H130.651C130.509 96.0527 130.439 95.5847 130.439 94.9547C130.439 94.6667 130.483 94.0097 130.571 92.9837C130.678 91.9397 130.731 91.2467 130.731 90.9047C130.731 89.8427 130.483 89.1677 129.987 88.8797C129.491 88.5917 128.65 88.4477 127.464 88.4477H123.107L121.46 96.3587H118.167L122.151 77.1347ZM124.887 79.8887L123.639 85.9097H128.871C130.04 85.9097 130.934 85.7027 131.554 85.2887C132.475 84.6407 132.936 83.6957 132.936 82.4537C132.936 81.8957 132.829 81.4367 132.617 81.0767C132.422 80.7167 132.13 80.4557 131.74 80.2937C131.351 80.1317 130.961 80.0237 130.571 79.9697C130.2 79.9157 129.739 79.8887 129.19 79.8887H124.887Z" fill="#495C78"/>
<path d="M157.535 84.9917C157.535 87.1517 157.128 89.1227 156.313 90.9047C155.516 92.6867 154.312 94.1267 152.701 95.2247C151.107 96.3227 149.256 96.8717 147.149 96.8717C144.617 96.8717 142.634 96.1157 141.199 94.6037C139.765 93.0917 139.048 91.0037 139.048 88.3397C139.048 85.0637 139.995 82.3187 141.89 80.1047C143.802 77.8727 146.343 76.7567 149.513 76.7567C151.975 76.7567 153.923 77.5037 155.357 78.9977C156.809 80.4737 157.535 82.4717 157.535 84.9917ZM149.301 79.5647C147.795 79.5647 146.503 80.0147 145.423 80.9147C144.342 81.8147 143.554 82.9217 143.059 84.2357C142.58 85.5317 142.341 86.9177 142.341 88.3937C142.341 90.1577 142.784 91.5527 143.669 92.5787C144.555 93.5867 145.777 94.0907 147.335 94.0907C148.805 94.0907 150.071 93.6137 151.134 92.6597C152.214 91.6877 152.993 90.5357 153.471 89.2037C153.949 87.8537 154.188 86.4587 154.188 85.0187C154.188 83.3267 153.781 81.9947 152.966 81.0227C152.152 80.0507 150.93 79.5647 149.301 79.5647Z" fill="#495C78"/>
<path d="M167.092 77.1347L163.665 93.4967H173.308L172.723 96.3587H159.734L163.772 77.1347H167.092Z" fill="#495C78"/>
<path d="M194.006 77.1347L193.421 79.9427H182.982L181.92 85.0997H191.615L191.084 87.7997H181.362L180.167 93.5507H190.765L190.154 96.3587H176.262L180.273 77.1347H194.006Z" fill="#495C78"/>
<path d="M207.159 77.1347H214.092C215.35 77.1347 216.332 77.2247 217.041 77.4047C217.749 77.5667 218.369 77.8727 218.9 78.3227C220.051 79.2947 220.627 80.6447 220.627 82.3727C220.627 83.9387 220.175 85.3337 219.272 86.5577C218.369 87.7817 217.182 88.5017 215.713 88.7177C214.809 88.8617 213.712 88.9337 212.419 88.9337H207.983L206.442 96.3587H203.122L207.159 77.1347ZM209.869 79.9157L208.567 86.2337H212.472C214.243 86.2337 215.429 86.0087 216.031 85.5587C216.439 85.2527 216.766 84.8387 217.014 84.3167C217.28 83.7947 217.413 83.2457 217.413 82.6697C217.413 82.0577 217.297 81.5537 217.067 81.1577C216.837 80.7617 216.492 80.4827 216.031 80.3207C215.589 80.1407 215.164 80.0327 214.756 79.9967C214.349 79.9427 213.835 79.9157 213.216 79.9157H209.869Z" fill="#495C78"/>
<path d="M229.498 77.1347L226.072 93.4967H235.714L235.13 96.3587H222.141L226.178 77.1347H229.498Z" fill="#495C78"/>
<path d="M251.896 77.1347L255.19 96.3587H251.817L251.046 91.2827H243.556L240.66 96.3587H237.048L248.364 77.1347H251.896ZM249.532 80.2937C248.789 81.7877 247.859 83.5247 246.743 85.5047L244.937 88.7177H250.701L250.117 84.7757C249.762 82.3097 249.568 80.8157 249.532 80.2937Z" fill="#495C78"/>
<path d="M275.815 77.1347L266.571 88.9067L265.004 96.3587H261.737L263.33 88.6907L258.523 77.1347H262.002L264.287 83.1017C264.641 84.0017 264.986 84.9647 265.323 85.9907C265.854 85.1627 266.447 84.3167 267.102 83.4527L271.884 77.1347H275.815Z" fill="#495C78"/>
</svg>
