<svg width="26" height="26" viewBox="0 0 26 26" fill="none" xmlns="http://www.w3.org/2000/svg">
<path d="M15.4274 5.18741C15.6596 4.78029 15.793 4.30986 15.793 3.80859V2.79297C15.793 1.25293 14.54 0 13 0C11.46 0 10.207 1.25293 10.207 2.79297V3.80859C10.207 4.30986 10.3404 4.78029 10.5726 5.18741C8.90759 5.59437 7.66797 7.0981 7.66797 8.88672V15.7422H9.26311L10.2787 26H15.7213L16.7369 15.7422H18.332V8.88672C18.332 7.0981 17.0924 5.59437 15.4274 5.18741ZM11.7305 2.79297C11.7305 2.09295 12.3 1.52344 13 1.52344C13.7 1.52344 14.2695 2.09295 14.2695 2.79297V3.80859C14.2695 4.50861 13.7 5.07812 13 5.07812C12.3 5.07812 11.7305 4.50861 11.7305 3.80859V2.79297ZM16.8086 14.2188H15.3569L14.3412 24.4766H11.6588L10.6431 14.2188H9.19141V8.88672C9.19141 7.62668 10.2165 6.60156 11.4766 6.60156H14.5234C15.7835 6.60156 16.8086 7.62668 16.8086 8.88672V14.2188Z" fill="#0671FF"/>
</svg>
