<svg width="26" height="26" viewBox="0 0 26 26" fill="none" xmlns="http://www.w3.org/2000/svg">
<path d="M21.7981 0.0398316C21.4156 0.0398316 21.0226 0.106189 20.6294 0.236976C20.6111 0.242929 20.5921 0.25002 20.5744 0.257374C20.5405 0.270943 17.1469 1.62329 12.7068 1.62329C10.1012 1.62329 7.65183 1.16387 5.42669 0.257636C5.00692 0.0866667 4.58173 0 4.16293 0C2.48816 0 1.22528 1.3871 1.22528 3.22645V13.7681C1.22528 20.3985 6.61743 26 13 26C19.3826 26 24.7748 20.3985 24.7748 13.7681V3.22645C24.7748 1.3801 23.5229 0.0398316 21.7981 0.0398316ZM22.9494 13.7681C22.9494 19.409 18.3932 24.1746 13 24.1746C7.60692 24.1746 3.05071 19.409 3.05071 13.7681V3.22645C3.05071 2.38841 3.49761 1.82534 4.16293 1.82534C4.34458 1.82534 4.53814 1.86666 4.73826 1.94816C7.18304 2.94378 9.86411 3.44863 12.7068 3.44863C17.3371 3.44863 20.8344 2.11764 21.2294 1.96112C21.4278 1.89756 21.6189 1.86517 21.7981 1.86517C22.5082 1.86517 22.9494 2.38683 22.9494 3.22645V13.7681Z" fill="#4D4E51"/>
<path d="M17.9362 17.497C17.6349 17.2288 17.1734 17.2559 16.9055 17.5573C16.08 18.4852 14.5837 19.0618 13.0001 19.0618C11.4166 19.0618 9.92015 18.4852 9.0948 17.5573C8.82692 17.256 8.3654 17.229 8.06408 17.497C7.76276 17.7649 7.73571 18.2265 8.00377 18.5278C9.11441 19.7766 10.9821 20.5221 13.0002 20.5221C15.0183 20.5221 16.8862 19.7765 17.9967 18.5278C18.2646 18.2265 18.2375 17.7649 17.9362 17.497Z" fill="#4D4E51"/>
<path d="M20.9659 10.6173C19.8519 10.0604 18.9059 9.87009 18.1328 9.87009C16.5165 9.87009 15.6592 10.7023 15.6074 10.7542C15.3174 11.0345 15.312 11.4839 15.5927 11.7758C15.8733 12.0676 16.3373 12.0764 16.6271 11.7965C16.676 11.7508 17.857 10.6958 20.3127 11.9235C20.6736 12.1037 21.1121 11.9577 21.2923 11.597C21.4726 11.2364 21.3265 10.7978 20.9659 10.6173Z" fill="#4D4E51"/>
<path d="M9.4825 11.7089C9.77244 11.9888 10.2363 11.9801 10.5169 11.6883C10.7976 11.3964 10.7922 10.947 10.5022 10.6667C10.4504 10.6147 9.59306 9.78256 7.97678 9.78256C7.20369 9.78256 6.25771 9.97288 5.14374 10.5298C4.78315 10.7102 4.63696 11.1487 4.8173 11.5094C4.99763 11.8701 5.43604 12.0161 5.79689 11.8359C8.25262 10.6083 9.43365 11.6632 9.4825 11.7089Z" fill="#4D4E51"/>
</svg>
