<svg width="26" height="26" viewBox="0 0 26 26" xmlns="http://www.w3.org/2000/svg">
<path d="M20.8656 4.35224C20.6085 4.35224 20.3604 4.39138 20.1264 4.46333V3.61339C20.1264 2.22215 18.9948 1.0902 17.6038 1.0902C17.2304 1.0902 16.8768 1.17382 16.5574 1.31999C16.1293 0.534277 15.2957 0 14.3395 0C13.0262 0 11.9453 1.00885 11.8281 2.29233C11.5911 2.21823 11.339 2.17826 11.078 2.17826C9.6866 2.17826 8.55466 3.31069 8.55466 4.70252V11.4933L7.97328 10.6979C7.05637 9.31382 5.2379 8.85792 3.89911 9.68788C3.27361 10.0843 2.83877 10.7091 2.67475 11.4471C2.50383 12.2163 2.64953 13.0503 3.0745 13.7463C3.27432 14.177 4.5766 16.9285 6.50639 19.722C9.38414 23.8876 12.1646 25.9999 14.7704 25.9999C21.8457 25.9999 23.3952 19.8551 23.3952 17.4875V6.87543C23.3951 5.48408 22.2604 4.35224 20.8656 4.35224ZM21.611 17.4875C21.611 17.5547 21.5328 24.2158 14.7703 24.2158C10.7054 24.2158 6.10295 16.0847 4.6727 12.9517C4.65533 12.9138 4.63535 12.8768 4.61287 12.8416C4.4146 12.5315 4.343 12.1643 4.41638 11.834C4.45908 11.6419 4.5697 11.375 4.84671 11.1994C5.36695 10.8767 6.10521 11.0983 6.49248 11.6929C6.50128 11.7063 6.51032 11.7196 6.51983 11.7326L8.72652 14.7515C8.95429 15.0631 9.35643 15.1928 9.72348 15.0731C10.0904 14.9532 10.3386 14.611 10.3386 14.2251V4.70252C10.3386 4.29432 10.6702 3.96236 11.0778 3.96236C11.4851 3.96236 11.8163 4.29432 11.8163 4.70252V11.5044C11.8163 11.9972 12.2157 12.3965 12.7084 12.3965C13.201 12.3965 13.6004 11.9972 13.6004 11.5044V4.70252V2.52307C13.6004 2.11558 13.9319 1.7841 14.3394 1.7841C14.7474 1.7841 15.0792 2.11558 15.0792 2.52307V3.61339V11.5044C15.0792 11.9972 15.4786 12.3965 15.9713 12.3965C16.4639 12.3965 16.8633 11.9972 16.8633 11.5044V3.61339C16.8633 3.20578 17.1955 2.8743 17.6037 2.8743C18.011 2.8743 18.3422 3.20578 18.3422 3.61339V6.87543V12.5933C18.3422 13.0861 18.7416 13.4854 19.2343 13.4854C19.7269 13.4854 20.1263 13.0861 20.1263 12.5933V6.87543C20.1263 6.46783 20.4579 6.13634 20.8655 6.13634C21.2766 6.13634 21.611 6.46783 21.611 6.87543V17.4875Z"/>
</svg>
