<svg width="18" height="30" viewBox="0 0 18 30" fill="none" xmlns="http://www.w3.org/2000/svg">
<path d="M14.0946 0H3.95974C2.23671 0 0.772705 1.40491 0.772705 3.12746V26.8761C0.772705 28.5987 2.20574 30 3.92876 30L14.0803 29.989C15.8031 29.989 17.2125 28.5875 17.2125 26.8647L17.2273 3.12579C17.2271 1.39705 15.8245 0 14.0946 0ZM7.56305 1.87504H10.5035C10.7618 1.87504 10.9722 2.08473 10.9722 2.34375C10.9722 2.60276 10.7618 2.81245 10.5035 2.81245H7.56305C7.30403 2.81245 7.09435 2.60276 7.09435 2.34375C7.09435 2.08473 7.30403 1.87504 7.56305 1.87504ZM5.79618 2.02421C5.96989 1.85074 6.28609 1.84836 6.45956 2.02421C6.54653 2.11094 6.598 2.23271 6.598 2.35709C6.598 2.47909 6.54653 2.60061 6.45956 2.68759C6.37306 2.77456 6.25082 2.82579 6.12906 2.82579C6.00492 2.82579 5.88554 2.77456 5.79618 2.68759C5.70968 2.60085 5.66036 2.47909 5.66036 2.35709C5.66012 2.23271 5.70968 2.11094 5.79618 2.02421ZM8.93865 29.0709C8.16519 29.0709 7.53612 28.4414 7.53612 27.6682C7.53612 26.8947 8.16519 26.2654 8.93865 26.2654C9.71212 26.2654 10.3412 26.8947 10.3412 27.6682C10.3412 28.4414 9.71188 29.0709 8.93865 29.0709ZM15.7724 25.312H2.41328V4.45326H15.7724V25.312Z" fill="#BABABC"/>
</svg>
