<svg width="24" height="24" viewBox="0 0 24 24" fill="none" xmlns="http://www.w3.org/2000/svg">
<g clip-path="url(#clip0)">
<path d="M19.0541 0H4.91473C2.38568 0 0.328125 2.05756 0.328125 4.58661V8.68231H4.20667V24H19.7622V8.68231H23.6407V4.58661C23.6409 2.05756 21.5834 0 19.0541 0V0ZM15.6026 3.10254L14.0684 3.81702L15.215 2.172L15.6026 3.10254ZM8.75409 2.172L9.90051 3.81702L8.36627 3.10254L8.75409 2.172ZM14.0154 1.41614L11.9844 4.33026L9.95343 1.41614H14.0154ZM22.2246 7.26617H19.7624V5.51953H18.3461V22.5839H5.6228V5.51953H4.20667V7.26617H1.74426V4.58661C1.74426 2.8385 3.16663 1.41614 4.91473 1.41614H7.53479L6.53632 3.81244L11.2764 6.01996V8.89069H12.6925V6.01996L17.4326 3.81244L16.4343 1.41614H19.0541C20.8024 1.41614 22.2246 2.8385 22.2246 4.58661V7.26617Z" fill="#C4C4C4"/>
</g>
<defs>
<clipPath id="clip0">
<rect width="24" height="24" fill="white"/>
</clipPath>
</defs>
</svg>
