<svg width="26" height="26" viewBox="0 0 26 26" fill="none" xmlns="http://www.w3.org/2000/svg">
<g clip-path="url(#clip0)">
<path d="M20.642 0H5.3243C2.58449 0 0.355469 2.22902 0.355469 4.96883V9.40584H4.55722V26H21.4091V9.40584H25.6108V4.96883C25.611 2.22902 23.382 0 20.642 0V0ZM16.9028 3.36108L15.2407 4.1351L16.4829 2.353L16.9028 3.36108ZM9.4836 2.353L10.7256 4.1351L9.06346 3.36108L9.4836 2.353ZM15.1834 1.53415L12.9831 4.69112L10.7829 1.53415H15.1834ZM24.0767 7.87169H21.4093V5.97949H19.8749V24.4659H6.09137V5.97949H4.55722V7.87169H1.88962V4.96883C1.88962 3.07504 3.43051 1.53415 5.3243 1.53415H8.16269L7.08101 4.13014L12.2161 6.52162V9.63158H13.7502V6.52162L18.8853 4.13014L17.8038 1.53415H20.642C22.536 1.53415 24.0767 3.07504 24.0767 4.96883V7.87169Z" fill="#236FE2"/>
</g>
<defs>
<clipPath id="clip0">
<rect width="26" height="26" fill="white"/>
</clipPath>
</defs>
</svg>
