<svg width="22" height="10" viewBox="0 0 22 10" xmlns="http://www.w3.org/2000/svg">
<path fill-rule="evenodd" clip-rule="evenodd" d="M10.4584 9.33331C13.3292 9.33331 15.9292 8.26081 17.9334 6.51665L19.9809 8.56415C20.6634 9.24665 21.8334 8.76998 21.8334 7.80581L21.8334 1.74998C21.8334 1.15415 21.3459 0.666646 20.75 0.666646L14.6942 0.666645C13.73 0.666645 13.2425 1.83665 13.925 2.51915L15.9942 4.58831C14.4884 5.84498 12.5709 6.62498 10.4475 6.62498C7.02421 6.62498 4.06671 4.63164 2.65838 1.74998C2.36588 1.14331 1.67254 0.839977 1.03338 1.05664C0.264209 1.30581 -0.125791 2.18331 0.220875 2.91998C2.08421 6.71164 5.96254 9.33331 10.4584 9.33331Z"/>
</svg>
