<svg width="20" height="20" viewBox="0 0 20 20" fill="none" xmlns="http://www.w3.org/2000/svg">
<path d="M19.6789 9.28246L9.97377 0.297374C9.66029 0.00700895 9.18883 -0.079857 8.77933 0.0773678C8.36969 0.234457 8.10268 0.604518 8.10268 1.0149V4.55381H1.09608C0.490607 4.55381 0 5.00817 0 5.5686V14.4315C0 14.9919 0.490607 15.4463 1.09608 15.4463H8.10268L8.10297 18.9852C8.10297 19.3956 8.36998 19.7657 8.77962 19.9227C8.91524 19.9747 9.05759 20 9.19876 20C9.48404 20 9.76434 19.8969 9.97421 19.7027L19.6791 10.7176C19.8845 10.5274 20 10.2692 20 10.0001C20 9.731 19.8845 9.4727 19.6789 9.28246ZM10.295 16.5354L10.2948 14.4314C10.2948 13.8709 9.80409 13.4166 9.19876 13.4166H2.19217V6.58326H9.19876C9.80424 6.58326 10.2948 6.1289 10.2948 5.56847V3.46487L17.3539 10.0001L10.295 16.5354Z" fill="#4E5059"/>
</svg>
