<svg width="54" height="50" viewBox="0 0 54 50" fill="none" xmlns="http://www.w3.org/2000/svg">
<path d="M49.8982 16.6271C49.9807 15.991 50.022 15.3909 50.022 14.8067C50.022 6.71956 43.442 0.140625 35.3538 0.140625C30.5107 0.140625 25.9617 2.5728 23.2438 6.55234C21.8795 5.84851 20.3681 5.48019 18.8165 5.48019C13.7966 5.48019 9.65725 9.32531 9.18944 14.2616C3.99594 15.1507 0.185745 19.6012 0.185745 24.9693C0.185745 30.9672 5.06597 35.8464 11.0638 35.8464H42.9361C48.9329 35.8464 53.8132 30.9672 53.8132 24.9693C53.8142 21.7074 52.396 18.7026 49.8982 16.6271ZM42.9361 33.7307H11.0649C6.23443 33.7307 2.30358 29.8009 2.30358 24.9704C2.30358 20.396 5.74016 16.6483 10.2986 16.2525L11.2628 16.1255V15.1549C11.2628 10.987 14.6518 7.59697 18.8186 7.59697C20.3141 7.59697 21.762 8.03514 23.0056 8.86491L23.9423 9.48936L24.5075 8.51565C26.7523 4.65571 30.9086 2.2574 35.3559 2.2574C42.2767 2.2574 47.9074 7.88696 47.9074 14.8067C47.9074 15.4608 47.8449 16.1466 47.7169 16.9034L47.6089 17.5448L48.1317 17.9311C50.3977 19.6065 51.6974 22.171 51.6974 24.9704C51.6974 29.8009 47.7677 33.7307 42.9361 33.7307ZM15.6308 47.748C15.6308 48.9164 14.6856 49.8605 13.5182 49.8605C12.3508 49.8605 11.4057 48.9154 11.4057 47.748C11.4057 46.5806 12.3508 45.6354 13.5182 45.6354C14.6856 45.6354 15.6308 46.5795 15.6308 47.748ZM22.0742 39.3803C22.0742 40.1593 21.4424 40.7922 20.6634 40.7922C19.8844 40.7922 19.2526 40.1593 19.2526 39.3803C19.2526 38.6014 19.8844 37.9706 20.6634 37.9706C21.4424 37.9706 22.0742 38.6003 22.0742 39.3803ZM29.8703 47.3077C29.8703 48.4761 28.9252 49.4202 27.7578 49.4202C26.5904 49.4202 25.6452 48.4751 25.6452 47.3077C25.6452 46.1403 26.5904 45.1951 27.7578 45.1951C28.9252 45.1951 29.8703 46.1392 29.8703 47.3077ZM44.1353 47.3077C44.1353 48.4761 43.1901 49.4202 42.0227 49.4202C40.8553 49.4202 39.9102 48.4751 39.9102 47.3077C39.9102 46.1403 40.8553 45.1951 42.0227 45.1951C43.1901 45.1951 44.1353 46.1392 44.1353 47.3077ZM36.2736 39.3803C36.2736 40.1593 35.6428 40.7922 34.8638 40.7922C34.0848 40.7922 33.4519 40.1593 33.4519 39.3803C33.4519 38.6014 34.0848 37.9706 34.8638 37.9706C35.6428 37.9706 36.2736 38.6003 36.2736 39.3803Z" fill="#B9B9B9"/>
</svg>
