<svg width="26" height="26" viewBox="0 0 26 26" fill="none" xmlns="http://www.w3.org/2000/svg">
<path d="M13.2813 2.28516V9.22572C13.2813 10.3334 12.3799 11.2348 11.2722 11.2348H6.30997C2.83066 11.2348 0 14.0654 0 17.5445V23.7648H15.6412L17.5086 23.282L19.302 23.7648H26V2.28516H13.2813ZM24.4736 3.92503V6.54721H14.8077V3.92503H24.4736ZM1.52641 17.5445C1.52641 15.4214 2.91695 13.6171 4.83513 12.994V19.5169H1.52641V17.5445ZM24.4736 22.2384H19.5038L17.5166 21.7034L15.447 22.2384H1.52641V21.0433H24.4736V22.2384ZM21.6975 19.5171V18.969C21.6975 17.2795 22.8879 15.8636 24.4736 15.5135V19.5169H21.6975V19.5171ZM24.4736 13.9607C22.0412 14.3298 20.1711 16.4351 20.1711 18.969V19.5171H6.36154V12.7612H11.2722C11.5097 12.7612 11.7418 12.7372 11.9661 12.6923L14.8081 15.2352L15.8257 14.0977L13.4713 11.9909C13.7732 11.7503 14.0349 11.4615 14.2447 11.1362H17.8857V9.60976H14.7865C14.8002 9.4836 14.8077 9.35545 14.8077 9.22572V8.07362H24.4736V13.9607Z" fill="#236FE2"/>
</svg>
