<?xml version="1.0" encoding="UTF-8"?>
<svg xmlns="http://www.w3.org/2000/svg" style="display: none;">
  <symbol id="vk" viewBox="0 0 34 34">
    <g clip-path="url(#clip0)">
    <path d="M33.697 24.6034C33.6056 24.4504 33.0403 23.222 30.3201 20.6973C27.4724 18.0536 27.8549 18.4829 31.2849 13.9117C33.374 11.1278 34.2091 9.42763 33.9477 8.70083C33.6991 8.00803 32.1626 8.19079 32.1626 8.19079L27.0537 8.22054C27.0537 8.22054 26.6755 8.16954 26.3928 8.33743C26.1187 8.50319 25.9423 8.88572 25.9423 8.88572C25.9423 8.88572 25.1326 11.0406 24.053 12.8725C21.777 16.7382 20.8653 16.9422 20.4934 16.702C19.6284 16.1431 19.8452 14.4536 19.8452 13.255C19.8452 9.50839 20.4126 7.9464 18.738 7.54262C18.1812 7.40873 17.7732 7.31948 16.3514 7.3046C14.5281 7.28547 12.9831 7.31098 12.1096 7.73813C11.5273 8.0229 11.0789 8.65833 11.3531 8.69446C11.691 8.73908 12.456 8.9006 12.8619 9.45314C13.3868 10.1651 13.3677 11.7674 13.3677 11.7674C13.3677 11.7674 13.6695 16.1771 12.6643 16.7254C11.9736 17.1016 11.0279 16.3344 8.99839 12.8258C7.95919 11.03 7.17288 9.04298 7.17288 9.04298C7.17288 9.04298 7.022 8.6732 6.7521 8.47556C6.42483 8.23542 5.96579 8.15892 5.96579 8.15892L1.10768 8.18867C1.10768 8.18867 0.378752 8.20992 0.110983 8.52657C-0.127035 8.80921 0.0918562 9.39151 0.0918562 9.39151C0.0918562 9.39151 3.89589 18.2895 8.20146 22.7758C12.1521 26.8879 16.6362 26.618 16.6362 26.618H18.6679C18.6679 26.618 19.282 26.55 19.5944 26.2121C19.8834 25.9019 19.8728 25.3196 19.8728 25.3196C19.8728 25.3196 19.8324 22.593 21.099 22.1913C22.3465 21.7961 23.9489 24.8265 25.6469 25.9932C26.9305 26.8752 27.9059 26.6818 27.9059 26.6818L32.4474 26.618C32.4474 26.618 34.8233 26.4714 33.697 24.6034Z"/>
    </g>
    <defs>
    <clipPath id="clip0">
    <rect width="34" height="34"/>
    </clipPath>
    </defs>
  </symbol>

  <symbol id="gmail" viewBox="0 0 26 26">
    <path d="M26 13.0001C26 12.1833 25.9234 11.3658 25.7716 10.572C25.7032 10.2128 25.3885 9.95312 25.0233 9.95312H13.0508C12.6298 9.95312 12.2891 10.2938 12.2891 10.7148V15.2852C12.2891 15.7062 12.6298 16.0469 13.0508 16.0469H19.1936C18.8109 16.8217 18.2834 17.494 17.6641 18.0596L21.9693 22.3648C24.4464 20.0048 26 16.6837 26 13.0001Z"/>
    <path d="M12.9999 6.09375C14.4944 6.09375 15.9159 6.56835 17.1105 7.46693C17.4125 7.69382 17.8388 7.66629 18.1065 7.39624L21.3573 4.14553C21.5083 3.9945 21.5893 3.78696 21.5797 3.57348C21.57 3.35999 21.4718 3.16062 21.3082 3.02301C18.9821 1.07341 16.0312 0 12.9999 0C8.53885 0 4.59777 2.26759 2.26797 5.71045L6.73916 10.1816C7.80587 7.77887 10.2059 6.09375 12.9999 6.09375Z"/>
    <path d="M12.9999 26C15.9078 26 18.5855 25.025 20.7493 23.4007L16.3632 19.0146C15.3607 19.5791 14.2149 19.9062 12.9999 19.9062C10.2059 19.9062 7.80587 18.2211 6.73916 15.8184L2.26797 20.2895C4.59777 23.7324 8.53885 26 12.9999 26Z"/>
    <path d="M6.20466 14.0972C6.14631 13.7377 6.09375 13.3757 6.09375 13C6.09375 12.6244 6.14631 12.2624 6.20466 11.9029L1.42492 7.12317C0.520609 8.88934 0 10.8833 0 13C0 15.1168 0.520609 17.1107 1.42497 18.8768L6.20466 14.0972Z"/>
  </symbol>
</svg>
