<svg width="28" height="28" viewBox="0 0 28 28" fill="none" xmlns="http://www.w3.org/2000/svg">
<path d="M22.2444 19.7202C20.7931 19.7202 19.2416 19.1616 17.7684 18.0766C15.2031 16.1874 14.5871 14.1058 14.522 12.6921C14.5206 12.6619 14.5196 12.6316 14.5188 12.6015H13.4813C13.4806 12.6316 13.4795 12.6619 13.4782 12.6921C13.4131 14.1057 12.7971 16.1874 10.2318 18.0766C8.00552 19.7161 5.60014 20.154 3.63259 19.2778C2.19201 18.6364 1.1737 17.3337 1.03812 15.9591C0.98623 15.4329 0.916986 14.7309 0.935978 13.9702H0.681537C0.305147 13.9702 0 13.665 0 13.2886C0 12.9122 0.305147 12.6071 0.681537 12.6071H1.07892C1.14707 12.2644 1.2434 11.9236 1.37643 11.594C2.09895 9.8047 3.71056 8.73241 6.16646 8.40718C8.01869 8.16183 9.60077 8.27106 10.8693 8.73178C11.0239 8.78784 11.1732 8.85282 11.3167 8.92588H16.6832C16.8268 8.85282 16.9761 8.78784 17.1306 8.73178C18.3991 8.27106 19.9815 8.16183 21.8335 8.40718C24.2893 8.7325 25.901 9.8047 26.6235 11.594C26.7565 11.9236 26.8528 12.2644 26.921 12.6071H27.3184C27.6948 12.6071 27.9999 12.9122 27.9999 13.2886C27.9999 13.665 27.6948 13.9702 27.3184 13.9702H27.064C27.0829 14.7309 27.0137 15.4329 26.9618 15.9591C26.8262 17.3338 25.8079 18.6364 24.3673 19.2778C23.702 19.5742 22.9862 19.7202 22.2444 19.7202ZM17.169 10.2136C16.3404 10.7 15.8371 11.6196 15.8835 12.6295C15.9349 13.7469 16.4439 15.4086 18.5765 16.9791C21.069 18.8146 22.9273 18.4271 23.813 18.0327C24.8135 17.5872 25.5171 16.7208 25.6053 15.8254C25.7302 14.5596 25.814 13.2297 25.3595 12.1044C24.827 10.7856 23.6151 10.0182 21.6544 9.75853C20.0219 9.54226 18.6563 9.62795 17.5957 10.0131C17.4644 10.0608 17.3389 10.1183 17.2198 10.1845C17.2035 10.1949 17.1865 10.2046 17.169 10.2136ZM7.99734 9.64222C7.48219 9.64222 6.93105 9.68093 6.34547 9.75853C4.38483 10.0182 3.17287 10.7856 2.64037 12.1044C2.18601 13.2297 2.26979 14.5596 2.39456 15.8254C2.48279 16.7208 3.18632 17.5872 4.18691 18.0327C5.07273 18.427 6.93087 18.8146 9.42339 16.9791C11.5561 15.4085 12.065 13.7469 12.1164 12.6295C12.1629 11.6196 11.6596 10.7 10.8309 10.2136C10.8134 10.2046 10.7965 10.1949 10.7799 10.1845C10.6608 10.1183 10.5353 10.0608 10.404 10.0131C9.72399 9.76608 8.91832 9.64222 7.99734 9.64222ZM14 11.2386H14.7155C14.8248 10.9012 14.9773 10.5822 15.1681 10.289H12.832C13.0228 10.5822 13.1754 10.9012 13.2846 11.2386H14Z" fill="#4D4E51"/>
</svg>
