<svg width="28" height="28" viewBox="0 0 28 28" fill="none" xmlns="http://www.w3.org/2000/svg">
<g clip-path="url(#clip0)">
<path d="M19.2095 23.5835L17.4696 6.18516L18.4767 3.16356C18.7432 2.36409 18.6457 1.55827 18.2092 0.952711C17.7728 0.347266 17.0392 0 16.1966 0H11.8034C10.9606 0 10.2269 0.347375 9.79047 0.95293C9.35407 1.55848 9.25661 2.3643 9.52316 3.16362L10.5303 6.18516L8.79046 23.5835C8.76279 23.8602 8.87714 24.132 9.0943 24.3056L13.4876 27.8202C13.6373 27.9401 13.8187 28 14 28C14.1813 28 14.3626 27.9401 14.5124 27.8202L18.9057 24.3056C19.1228 24.132 19.2372 23.8602 19.2095 23.5835ZM11.1215 1.91215C11.2477 1.73709 11.4898 1.64062 11.8034 1.64062H16.1966C16.51 1.64062 16.7522 1.73704 16.8783 1.91209C17.0046 2.08715 17.0194 2.34741 16.9203 2.6448L16.0446 5.27187H11.9554L11.0796 2.64469C10.9805 2.34735 10.9953 2.0872 11.1215 1.91215ZM14 26.1292L10.4673 23.3031L12.1065 6.9125H15.8935L17.5326 23.3031L14 26.1292Z" fill="#3F4043"/>
</g>
<defs>
<clipPath id="clip0">
<rect width="28" height="28" fill="white"/>
</clipPath>
</defs>
</svg>
