<svg width="26" height="26" viewBox="0 0 26 26" fill="none" xmlns="http://www.w3.org/2000/svg">
<path d="M18.0028 22.105C17.7885 21.9525 17.4911 22.0026 17.3386 22.2169C17.186 22.4312 17.2361 22.7286 17.4505 22.8811C17.6838 23.0526 17.7409 23.1716 17.7457 23.1954C17.7206 23.2361 17.6864 23.2703 17.6457 23.2954C17.5967 23.3019 17.5471 23.3019 17.4981 23.2954C17.1362 23.2954 16.7791 22.8192 16.3934 22.3431C16.1981 22.0823 15.9883 21.8327 15.7649 21.5955C15.4538 21.2682 15.0213 21.0838 14.5697 21.086C14.198 21.0952 13.834 21.1931 13.5079 21.3717C13.1819 21.1931 12.8178 21.0952 12.4461 21.086C11.9945 21.0838 11.562 21.2682 11.2509 21.5955C11.0301 21.839 10.8235 22.095 10.6319 22.3621C10.251 22.8383 9.88914 23.3144 9.52726 23.3144C9.47828 23.321 9.42864 23.321 9.37965 23.3144C9.34037 23.2896 9.30638 23.2572 9.27966 23.2192C9.27966 23.1906 9.34156 23.0716 9.57487 22.9002C9.7892 22.7476 9.83932 22.4503 9.68677 22.236C9.53422 22.0216 9.23686 21.9715 9.02254 22.1241C8.91302 22.2002 7.93214 22.8954 7.975 23.8858C7.9988 24.5143 8.41782 25.0667 9.22252 25.5238C9.72213 25.8243 10.2918 25.9884 10.8748 25.9999C11.8595 25.9539 12.7952 25.5569 13.5127 24.881C14.2318 25.5531 15.1672 25.9465 16.1506 25.9904C16.7335 25.9789 17.3032 25.8148 17.8028 25.5143C18.6075 25.0381 19.0265 24.5048 19.0504 23.8763C19.0932 22.8764 18.1171 22.1812 18.0028 22.105ZM17.3362 24.681C16.978 24.8917 16.5709 25.005 16.1553 25.0095C14.8745 25.0095 13.8841 23.8858 13.8793 23.8763C13.786 23.7744 13.6556 23.7143 13.5174 23.7096C13.3782 23.7096 13.246 23.7705 13.1556 23.8763C13.1556 23.8763 12.1604 25.0095 10.8748 25.0095C10.4544 25.0075 10.042 24.8941 9.67963 24.681C9.44977 24.5598 9.24341 24.3985 9.07015 24.2048C9.21371 24.2487 9.36287 24.2711 9.51297 24.2715C10.3415 24.2715 10.8605 23.5954 11.37 22.943C11.5434 22.7109 11.7294 22.4884 11.9271 22.2764C12.058 22.1309 12.2456 22.0492 12.4413 22.0526C12.7214 22.0708 12.9912 22.1647 13.2222 22.324C13.3905 22.4487 13.6205 22.4487 13.7888 22.324C14.0186 22.1659 14.2867 22.0722 14.565 22.0526C14.7607 22.0492 14.9483 22.1309 15.0792 22.2764C15.277 22.4883 15.463 22.7108 15.6363 22.943C16.141 23.5954 16.6648 24.2715 17.4933 24.2715C17.6434 24.2708 17.7925 24.2484 17.9361 24.2048C17.7657 24.3976 17.5627 24.5588 17.3362 24.681Z" fill="#C4C4C4"/>
<path d="M23.5075 5.03016C23.4808 4.8213 23.3201 4.65477 23.1123 4.62066C22.9064 4.60543 22.7141 4.72464 22.6362 4.91588C22.16 6.04913 21.5267 6.37291 21.022 6.42529C22.141 2.86841 19.7078 0.920942 18.6412 0.273372C18.5014 0.184569 18.3567 0.103504 18.2079 0.0305334H18.1603C18.119 0.0151179 18.0757 0.00547578 18.0318 0.00196414H17.9556C17.9287 -0.000654712 17.9015 -0.000654712 17.8746 0.00196414H17.8365H17.8032L17.7746 0.0638642C17.7414 0.0854102 17.7111 0.111004 17.6842 0.140049L17.6365 0.201949C17.6141 0.235815 17.5964 0.272658 17.5842 0.311465C17.5833 0.327297 17.5833 0.343248 17.5842 0.35908C17.1413 2.2637 15.4605 3.16363 12.2893 3.16363C11.5465 3.16363 10.8609 3.11601 10.2133 3.07792C9.73714 3.04935 9.33241 3.02078 9.00387 3.02078C6.99926 3.02078 6.0279 4.95873 5.74697 5.63963C4.06138 6.21102 3.01384 7.20618 2.53769 8.58703C1.34254 12.2439 4.99464 17.2864 5.15178 17.5006C5.19201 17.5515 5.24224 17.5937 5.29938 17.6244H5.34224C5.40205 17.6517 5.46693 17.6663 5.5327 17.6673C5.59138 17.6668 5.64954 17.6556 5.70411 17.634C5.74054 17.6149 5.77423 17.5908 5.80411 17.5625H5.83744C5.87928 17.5215 5.91321 17.4731 5.93743 17.4197C5.93743 17.4197 5.93743 17.3911 5.93743 17.3721C5.95201 17.3338 5.96165 17.2938 5.966 17.253C5.9657 17.2038 5.9657 17.1547 5.966 17.1054C5.65174 15.8531 6.87546 13.0629 7.39446 11.8677C7.49922 11.6249 7.58493 11.4297 7.64206 11.2868C7.82788 10.7484 7.93067 10.1849 7.9468 9.61552C9.60221 10.9549 11.6848 11.6531 13.813 11.582C14.1606 11.582 14.5035 11.582 14.8368 11.582C15.1701 11.582 15.4462 11.582 15.7415 11.582C17.6937 11.582 19.0079 14.6151 19.0222 14.6437C19.1238 14.8863 19.4028 15.0004 19.6454 14.8988C19.6722 14.8876 19.6978 14.8739 19.7221 14.858C24.9598 11.4535 23.5313 5.09206 23.5075 5.03016ZM17.9032 4.32069V4.31592C18.1458 4.03196 18.3404 3.71026 18.4793 3.36361C18.5256 4.20319 18.3619 5.04105 18.0032 5.80153C17.4176 6.86514 16.3967 7.6199 15.2082 7.86804C12.5066 8.60274 9.6168 8.02624 7.40399 6.31101C8.18964 6.3872 9.27527 6.46814 10.4704 6.46814C13.1655 6.45862 16.4081 6.05389 17.9032 4.32069ZM8.98006 3.96833V3.96357C9.27527 3.96357 9.67048 3.98738 10.1276 4.02071C10.7656 4.06356 11.4942 4.11118 12.2655 4.11118C13.3702 4.11118 16.3319 4.11118 17.7937 2.12085C17.7789 2.70087 17.5635 3.25785 17.1842 3.69692C15.1796 6.02056 9.01815 5.53012 6.97069 5.29204C7.36595 4.53251 8.12619 4.03166 8.98006 3.96833ZM3.44238 8.88225C3.72331 8.04332 4.32154 7.34772 5.10892 6.9443C4.21726 9.15764 3.90907 11.5629 4.21375 13.9295C3.49 12.3629 2.93766 10.4345 3.44238 8.88225ZM19.6793 13.7105C19.1412 12.701 17.7746 10.5964 15.7748 10.5964C15.47 10.5964 15.1605 10.5964 14.8225 10.5964C12.7988 10.6583 10.5038 10.725 7.81348 8.21563C7.62105 8.03636 7.31977 8.04701 7.14049 8.23938C7.05181 8.33455 7.00592 8.46192 7.01354 8.59179C7.06502 9.37292 6.98289 10.1571 6.7707 10.9107C6.71832 11.044 6.63738 11.2297 6.53262 11.463C6.04617 12.5246 5.63097 13.6174 5.28986 14.7342C4.75883 11.9941 5.11231 9.15615 6.29931 6.63003C8.11917 8.22878 10.4482 9.12836 12.8702 9.16794C13.7439 9.16562 14.6133 9.04711 15.4558 8.81558C16.9073 8.5015 18.1481 7.56693 18.8507 6.25863C19.45 4.92362 19.6053 3.43159 19.2936 2.00181C20.1316 2.91603 20.8458 4.4302 19.9316 6.66813C19.833 6.91192 19.9507 7.18946 20.1945 7.28808C20.202 7.29112 20.2096 7.29397 20.2173 7.29665C20.4285 7.36171 20.6486 7.39385 20.8696 7.39188C21.6037 7.38563 22.2988 7.06066 22.7743 6.50147C22.8838 8.28229 22.6076 11.5249 19.6793 13.7105Z" fill="#C4C4C4"/>
</svg>
