<svg width="20" height="20" viewBox="0 0 20 20" xmlns="http://www.w3.org/2000/svg">
<path d="M17.0833 7.08333C17.0833 3.17749 13.9058 0 9.99996 0C6.09412 0 2.91663 3.17749 2.91663 7.08333C2.91663 10.7066 5.65283 13.6987 9.16663 14.1134V15.8333H7.49996C7.03996 15.8333 6.66663 16.2067 6.66663 16.6667C6.66663 17.1267 7.03996 17.5 7.49996 17.5H9.16663V19.1667C9.16663 19.6267 9.53996 20 9.99996 20C10.46 20 10.8333 19.6267 10.8333 19.1667V17.5H12.5C12.96 17.5 13.3333 17.1267 13.3333 16.6667C13.3333 16.2067 12.96 15.8333 12.5 15.8333H10.8333V14.1134C14.3471 13.6987 17.0833 10.7066 17.0833 7.08333ZM4.58329 7.08333C4.58329 4.09668 7.01331 1.66667 9.99996 1.66667C12.9866 1.66667 15.4166 4.09668 15.4166 7.08333C15.4166 10.07 12.9866 12.5 9.99996 12.5C7.01331 12.5 4.58329 10.07 4.58329 7.08333Z"/>
</svg>
