<svg width="28" height="28" viewBox="0 0 28 28" fill="none" xmlns="http://www.w3.org/2000/svg">
<path d="M13.2998 7.93335C9.94924 7.93335 7.23309 10.6495 7.23309 14C7.23309 17.3505 9.94924 20.0667 13.2998 20.0667C16.6503 20.0667 19.3664 17.3505 19.3664 14C19.3626 10.6511 16.6487 7.93722 13.2998 7.93335ZM13.2998 19.1333C10.4649 19.1333 8.16643 16.8351 8.16643 14C8.16643 11.1649 10.4649 8.86668 13.2998 8.86668C16.1349 8.86668 18.4331 11.1649 18.4331 14C18.4299 16.8337 16.1335 19.1299 13.2998 19.1333Z" fill="#4D4E51"/>
<path d="M21.2331 12.6H20.6302C20.3007 10.8789 19.3764 9.32855 18.0193 8.21976L17.4289 4.66667H16.5664V0H10.0331V4.66667H9.16196L8.66294 8.15824C6.87579 9.57008 5.83331 11.7225 5.83331 14C5.83331 16.2775 6.87579 18.4299 8.66294 19.8418L9.16196 23.3333H10.0331V28H16.5664V23.3333H17.4289L18.0193 19.7802C19.3764 18.6715 20.3007 17.1211 20.6302 15.4H21.2331C21.7487 15.4 22.1664 14.9821 22.1664 14.4667V13.5333C22.1664 13.0179 21.7487 12.6 21.2331 12.6ZM10.9664 0.933333H15.6331V4.66667H10.9664V0.933333ZM9.97111 5.6H16.6375L16.9524 7.49469C14.707 6.22594 11.9642 6.2125 9.70656 7.45915L9.97111 5.6ZM15.6331 27.0667H10.9664V23.3333H15.6331V27.0667ZM16.6375 22.4H9.97111L9.70656 20.5409C11.9645 21.7877 14.7077 21.7745 16.9533 20.5053L16.6375 22.4ZM13.2998 20.5333C9.69152 20.5333 6.76642 17.6082 6.76642 14C6.76642 10.3918 9.69152 7.46667 13.2998 7.46667C16.9082 7.46667 19.8331 10.3918 19.8331 14C19.8292 17.6066 16.9066 20.5295 13.2998 20.5333ZM21.2331 14.4667H20.7427C20.7525 14.3117 20.7664 14.1577 20.7664 14C20.7664 13.8423 20.7525 13.6883 20.7427 13.5333H21.2331V14.4667Z" fill="#4D4E51"/>
<path d="M12.8331 13.8068L11.1031 15.5367L11.763 16.1966L13.7664 14.1932V9.79999H12.8331V13.8068Z" fill="#4D4E51"/>
</svg>
