<svg width="75" height="28" viewBox="0 0 75 28" fill="none" xmlns="http://www.w3.org/2000/svg">
<path d="M73.75 5.00002H61.25V1.25002C61.25 0.559709 60.6903 1.65436e-05 60 1.65436e-05H56.25C55.7739 -0.00242486 55.3375 0.26552 55.1251 0.691545L52.9773 5.00002H41.5448L39.3085 3.88124C39.1351 3.79457 38.9441 3.75002 38.75 3.75002H38.1635L37.4628 0.946062C37.323 0.390031 36.8231 1.65436e-05 36.25 1.65436e-05H25C24.4269 1.65436e-05 23.927 0.390031 23.7872 0.946062L23.0865 3.75002H22.5C22.3059 3.75002 22.1149 3.79457 21.9415 3.88124L19.7052 5.00002H1.25C0.559692 5.00002 0 5.55971 0 6.25002V18.75C0 19.4403 0.559692 20 1.25 20H7.5C7.77039 20 8.03345 19.9121 8.25012 19.7498L13.006 16.1823L19.8035 15.0501L20.9711 15.6336L18.1128 24.209C17.8583 24.9713 17.9858 25.8094 18.4558 26.4612C18.9252 27.1137 19.6802 27.5 20.484 27.5H25C25.5383 27.5 26.0162 27.1558 26.1865 26.6449L29.6515 16.25H30.8661V16.9824C30.8667 17.771 31.037 18.5504 31.366 19.2676C31.6614 19.8798 32.3914 20.1435 33.0096 19.8621C33.6279 19.5807 33.9087 18.8568 33.6414 18.2324C33.4619 17.84 33.3698 17.414 33.3698 16.9824V16.25H35.0403C35.2142 19.3048 36.0089 22.2925 37.3749 25.0299L37.6373 25.5585C37.8485 25.9809 38.2782 26.2482 38.75 26.25H43.75C44.1846 26.2525 44.5886 26.0291 44.8181 25.6604C45.0476 25.2912 45.069 24.8297 44.8749 24.4416L44.6112 23.9124C43.2281 21.145 42.5049 18.0939 42.5 15H52.5C53.1903 15 53.75 14.4403 53.75 13.75V12.5H73.75C74.4403 12.5 75 11.9403 75 11.25V6.25002C75 5.55971 74.4403 5.00002 73.75 5.00002ZM18.75 10V12.6911L12.2937 13.7677C12.0966 13.8007 11.9098 13.88 11.7499 14.0003L7.08374 17.5H2.5V7.50002H18.75V10ZM25.976 2.50002H35.274L35.5865 3.75002H25.6635L25.976 2.50002ZM24.101 25H20.4852L23.4015 16.25H27.016L24.101 25ZM32.5 13.75H22.7948L21.25 12.9773V11.25H32.5V13.75ZM21.25 8.75002V7.02273L22.7948 6.25002H38.4552L40 7.02273V8.75002H21.25ZM36.25 13.75H35V11.25H40V13.75H36.25ZM39.5239 23.75C38.3801 21.4032 37.7063 18.8556 37.5403 16.25H40.0403C40.1874 18.8312 40.777 21.3678 41.7822 23.75H39.5239ZM43.75 12.5H42.5V7.50002H43.75V12.5ZM47.5 12.5H46.25V7.50002H47.5V12.5ZM51.25 11.25V12.5H50V7.50002H51.25V11.25ZM57.0227 2.50002H58.75V5.00002H55.7727L57.0227 2.50002ZM62.5 10H53.75V7.50002H62.5V10ZM67.5 10H65V7.50002H67.5V10ZM72.5 10H70V7.50002H72.5V10Z" fill="#4D4E51"/>
</svg>
