<svg width="19" height="19" viewBox="0 0 19 19" xmlns="http://www.w3.org/2000/svg">
<path fill-rule="evenodd" clip-rule="evenodd" d="M13.7916 12.1667H12.9358L12.6324 11.8742C13.9324 10.3575 14.6041 8.28834 14.2358 6.08917C13.7266 3.07751 11.2133 0.672506 8.17995 0.304173C3.59745 -0.25916 -0.259221 3.59751 0.304112 8.18001C0.672445 11.2133 3.07745 13.7267 6.08911 14.2358C8.28828 14.6042 10.3574 13.9325 11.8741 12.6325L12.1666 12.9358V13.7917L16.7816 18.3958C17.2258 18.84 17.9408 18.84 18.3849 18.3958L18.3958 18.385C18.8399 17.9408 18.8399 17.2258 18.3958 16.7817L13.7916 12.1667ZM7.29163 12.1667C4.59413 12.1667 2.41663 9.98917 2.41663 7.29167C2.41663 4.59417 4.59413 2.41667 7.29163 2.41667C9.98913 2.41667 12.1666 4.59417 12.1666 7.29167C12.1666 9.98917 9.98913 12.1667 7.29163 12.1667ZM5.12492 6.75H9.45825C9.76159 6.75 9.99992 6.98833 9.99992 7.29167C9.99992 7.595 9.76159 7.83333 9.45825 7.83333H5.12492C4.82159 7.83333 4.58325 7.595 4.58325 7.29167C4.58325 6.98833 4.82159 6.75 5.12492 6.75Z"/>
</svg>
