<svg width="19" height="19" viewBox="0 0 19 19" xmlns="http://www.w3.org/2000/svg">
<path fill-rule="evenodd" clip-rule="evenodd" d="M13.7917 12.1667H12.9359L12.6325 11.8742C13.9325 10.3576 14.6042 8.2884 14.2359 6.08923C13.7267 3.07757 11.2134 0.672567 8.18005 0.304234C3.59755 -0.259099 -0.248282 3.59757 0.304218 8.18007C0.672551 11.2134 3.07755 13.7267 6.08922 14.2359C8.28838 14.6042 10.3575 13.9326 11.8742 12.6326L12.1667 12.9359V13.7917L16.7817 18.3959C17.2259 18.8401 17.9409 18.8401 18.385 18.3959L18.3959 18.3851C18.84 17.9409 18.84 17.2259 18.3959 16.7817L13.7917 12.1667ZM7.29175 12.1667C4.59425 12.1667 2.41675 9.98917 2.41675 7.29167C2.41675 4.59417 4.59425 2.41667 7.29175 2.41667C9.98925 2.41667 12.1667 4.59417 12.1667 7.29167C12.1667 9.98917 9.98925 12.1667 7.29175 12.1667ZM7.29171 4.58333C6.98837 4.58333 6.75004 4.82167 6.75004 5.125V6.75H5.12504C4.82171 6.75 4.58337 6.98833 4.58337 7.29167C4.58337 7.595 4.82171 7.83333 5.12504 7.83333H6.75004V9.45833C6.75004 9.76167 6.98837 10 7.29171 10C7.59504 10 7.83337 9.76167 7.83337 9.45833V7.83333H9.45837C9.76171 7.83333 10 7.595 10 7.29167C10 6.98833 9.76171 6.75 9.45837 6.75H7.83337V5.125C7.83337 4.82167 7.59504 4.58333 7.29171 4.58333Z"/>
</svg>
